<?xml version="1.0" encoding="UTF-8" standalone="no"?>
<!DOCTYPE svg PUBLIC "-//W3C//DTD SVG 1.1//EN"
"http://www.w3.org/Graphics/SVG/1.1/DTD/svg11.dtd">


<!-- Page 1 -->
<svg x="0" y="0" width="178" height="126" viewBox="0 0 178 126" version="1.1" xmlns="http://www.w3.org/2000/svg" xmlns:xlink="http://www.w3.org/1999/xlink"
style="display: block;margin-left: auto;margin-right: auto;">
<defs>
<clipPath id="c_1"><path d="M0,0H178V126H0Z"/></clipPath>
<style type="text/css"><![CDATA[

.g0{
stroke: #000000;
stroke-width: 0.152;
stroke-linecap: butt;
stroke-linejoin: miter;
stroke-miterlimit: 4;
}
.g1{
}
.g2{
fill: none;
stroke: #000000;
stroke-width: 0.152;
stroke-linecap: butt;
stroke-linejoin: miter;
stroke-miterlimit: 4;
}
.g3{
fill: #B01E22;
}

]]></style>

</defs>
<path d="M0,0
L0,126
L178,126
L178,0 Z "
fill="none" stroke="none"/>
<g clip-path="url(#c_1)">
<path d="M37.1,15c-.3,-.4,-.6,-.5,-1,-.5c-.5,0,-.9,.3,-.9,.7c0,.3,.2,.5,1,.8c.7,.3,.9,.4,1.2,.7c.4,.3,.6,.7,.6,1.3c0,1.3,-.9,2.1,-2.2,2.1c-1,0,-1.7,-.4,-2.2,-1.2l.8,-.8c.3,.6,.7,.9,1.3,.9c.6,0,1,-.4,1,-.9c0,-.3,-.1,-.5,-.4,-.7c-.1,-.1,-.3,-.2,-.8,-.4c-1.2,-.4,-1.6,-.8,-1.6,-1.7c0,-1.1,.9,-1.9,2,-1.9c.7,0,1.3,.3,1.9,.7l-.7,.9Z" class="g0"/>
<path d="M40.4,20V14.6H39V13.5h4.1v1.1H41.7V20H40.4Z" class="g0"/>
<path d="M45.6,18.6L45,20H43.7l2.8,-6.6h.9L50.1,20H48.8l-.6,-1.4H45.6ZM47,15.3l-1,2.3h1.8L47,15.3Z" class="g0"/>
<path d="M52.6,18.6L52,20H50.7l2.8,-6.6h.9L57.1,20H55.8l-.6,-1.4H52.6Zm1.3,-3.3L53,17.6h1.8l-.9,-2.3Z" class="g0"/>
<path d="M59.2,20V14.6H57.7V13.5h4.2v1.1H60.4V20H59.2Z" class="g0"/>
<path d="M66.3,15c-.3,-.4,-.6,-.5,-1,-.5c-.5,0,-.9,.3,-.9,.7c0,.3,.2,.5,1,.8c.7,.3,1,.4,1.2,.7c.4,.3,.6,.7,.6,1.3c0,1.3,-.9,2.1,-2.2,2.1c-1,0,-1.6,-.4,-2.2,-1.2l.8,-.8c.3,.6,.8,.9,1.4,.9c.5,0,.9,-.4,.9,-.9c0,-.3,-.1,-.5,-.4,-.7c-.1,-.1,-.3,-.2,-.8,-.4c-1.2,-.4,-1.6,-.8,-1.6,-1.7c0,-1.1,.9,-1.9,2,-1.9c.7,0,1.4,.3,1.9,.7l-.7,.9Z" class="g0"/>
<path d="M68.1,16.3h2.2v1H68.1v-1Z" class="g0"/>
<path d="M75.7,17.2c0,.7,.1,.9,.2,1.2c.3,.3,.7,.6,1.2,.6c.4,0,.9,-.3,1.1,-.6c.2,-.3,.2,-.5,.2,-1.2V13.5h1.2v4c0,.7,-.1,1.3,-.4,1.7c-.5,.6,-1.3,.9,-2.1,.9c-.9,0,-1.7,-.3,-2.1,-.9c-.4,-.4,-.5,-1,-.5,-1.7v-4h1.2v3.7Z" class="g0"/>
<path d="M81.6,13.4h.9l3.9,4.5V13.5h1.3v6.6h-.9L82.9,15.6V20H81.6V13.4Z" class="g0"/>
<path d="M89.7,13.5h1.8c1,0,1.7,.3,2.3,.8c.7,.6,1.2,1.5,1.2,2.5c0,.9,-.5,1.8,-1.2,2.4c-.6,.5,-1.3,.8,-2.3,.8H89.7V13.5Zm1.6,5.4c.8,0,1.3,-.2,1.7,-.5c.4,-.4,.7,-1,.7,-1.7c0,-.6,-.3,-1.2,-.7,-1.5c-.4,-.4,-.9,-.6,-1.7,-.6h-.4v4.3h.4Z" class="g0"/>
<path d="M100.8,17.2c0,.7,.1,.9,.2,1.2c.3,.3,.7,.6,1.2,.6c.5,0,.9,-.3,1.1,-.6c.2,-.3,.2,-.5,.2,-1.2V13.5h1.2v4c0,.7,-.1,1.3,-.4,1.7c-.5,.6,-1.3,.9,-2.1,.9c-.9,0,-1.7,-.3,-2.1,-.9c-.4,-.4,-.5,-1,-.5,-1.7v-4h1.2v3.7Z" class="g0"/>
<path d="M106.8,13.4h.8l3.9,4.5V13.5h1.3v6.6h-.9L108,15.6V20h-1.2V13.4Z" class="g0"/>
<path d="M114.8,13.5H116V20h-1.2V13.5Z" class="g0"/>
<path d="M120.4,17.9l1.7,-4.4h1.4l-2.8,6.6H120l-2.7,-6.6h1.4l1.7,4.4Z" class="g0"/>
<path d="M126,14.6v1.5h2.2v1H126v1.8h2.3V20h-3.5V13.5h3.5v1.1H126Z" class="g0"/>
<path d="M134.8,20h-1.6l-1.7,-2.6h-.2V20h-1.2V13.5h1.8c.7,0,1.3,.2,1.7,.5c.4,.3,.6,.9,.6,1.4c0,.6,-.2,1.2,-.6,1.5c-.2,.2,-.5,.3,-.9,.4l2.1,2.7Zm-3.1,-3.5c.8,0,1.2,-.3,1.2,-1c0,-.6,-.4,-.9,-1.2,-.9h-.4v1.9h.4Z" class="g0"/>
<path d="M139.3,15c-.4,-.4,-.7,-.5,-1,-.5c-.6,0,-1,.3,-1,.7c0,.3,.3,.5,1,.8c.7,.3,1,.4,1.3,.7c.4,.3,.5,.7,.5,1.3c0,1.3,-.9,2.1,-2.2,2.1c-.9,0,-1.6,-.4,-2.2,-1.2l.8,-.8c.3,.6,.8,.9,1.4,.9c.5,0,1,-.4,1,-.9c0,-.3,-.2,-.5,-.4,-.7c-.1,-.1,-.4,-.2,-.9,-.4c-1.2,-.4,-1.6,-.8,-1.6,-1.7c0,-1.1,.9,-1.9,2,-1.9c.7,0,1.4,.3,1.9,.7l-.6,.9Z" class="g0"/>
<path d="M141.8,13.5H143V20h-1.2V13.5Z" class="g1"/>
<path d="M141.8,13.5H143V20h-1.2V13.5Z" class="g2"/>
<path d="M145.8,20V14.6h-1.4V13.5h4.1v1.1h-1.4V20h-1.3Z" class="g0"/>
<path d="M151,18.6l-.6,1.4h-1.3l2.8,-6.6h.9l2.7,6.6h-1.3l-.6,-1.4H151Zm1.4,-3.3l-1,2.3h1.8l-.8,-2.3ZM152,12.1c0,.4,-.3,.7,-.7,.7c-.4,0,-.7,-.3,-.7,-.7c0,-.3,.3,-.6,.7,-.6c.4,0,.7,.3,.7,.6Zm2,0c0,.4,-.3,.7,-.7,.7c-.4,0,-.7,-.3,-.7,-.7c0,-.3,.3,-.6,.7,-.6c.4,0,.7,.3,.7,.6Z" class="g0"/>
<path d="M157.6,20V14.6h-1.5V13.5h4.2v1.1h-1.5V20h-1.2Z" class="g0"/>
<path d="M164.8,15c-.4,-.4,-.7,-.5,-1.1,-.5c-.5,0,-.9,.3,-.9,.7c0,.3,.2,.5,1,.8c.7,.3,1,.4,1.3,.7c.3,.3,.5,.7,.5,1.3c0,1.3,-.9,2.1,-2.2,2.1c-.9,0,-1.6,-.4,-2.2,-1.2l.8,-.8c.3,.6,.8,.9,1.4,.9c.5,0,.9,-.4,.9,-.9c0,-.3,-.1,-.5,-.3,-.7c-.2,-.1,-.4,-.2,-.9,-.4c-1.2,-.4,-1.6,-.8,-1.6,-1.7c0,-1.1,.9,-1.9,2,-1.9c.7,0,1.4,.3,1.9,.7l-.6,.9Z" class="g0"/>
<path d="M166.5,16.3h2.2v1h-2.2v-1Z" class="g0"/>
<path d="M33.8,29.2h2.6c1.5,0,2.5,.3,3.3,.9c.8,.7,1.3,1.8,1.3,3c0,1.2,-.4,2.1,-1.4,2.8c1.7,.5,2.7,1.9,2.7,3.7c0,1.2,-.5,2.3,-1.4,3.1c-.9,.7,-1.9,.9,-3.5,.9H33.8V29.2Zm2.8,6.4c1.1,0,1.6,-.2,2.1,-.6c.5,-.5,.7,-1.1,.7,-1.9c0,-.7,-.2,-1.5,-.7,-1.9c-.5,-.4,-1,-.5,-2,-.5H35.4v4.9h1.2Zm.7,6.6c1.3,0,1.9,-.2,2.5,-.7c.6,-.5,.9,-1.2,.9,-2c0,-.9,-.5,-1.7,-1.2,-2.1c-.6,-.3,-1.3,-.5,-2.5,-.5H35.4v5.3h1.9Z" class="g0"/>
<path d="M48.8,29.2h1.7V43.6H48.8V29.2Z" class="g0"/>
<path d="M57.8,29.2h2.6c1.5,0,2.5,.3,3.3,.9c.8,.7,1.3,1.8,1.3,3c0,1.2,-.4,2.1,-1.4,2.8c1.7,.5,2.7,1.9,2.7,3.7c0,1.2,-.5,2.3,-1.4,3.1c-.9,.7,-1.9,.9,-3.5,.9H57.8V29.2Zm2.8,6.4c1.1,0,1.6,-.2,2.1,-.6c.5,-.5,.8,-1.1,.8,-1.9c0,-.7,-.3,-1.5,-.8,-1.9c-.5,-.4,-1,-.5,-2,-.5H59.4v4.9h1.2Zm.7,6.6c1.3,0,1.9,-.2,2.5,-.7c.6,-.5,.9,-1.2,.9,-2c0,-.9,-.5,-1.7,-1.2,-2.1C63,37.1,62.2,36.9,61,36.9H59.4v5.3h1.9Z" class="g0"/>
<path d="M74.5,42.2h3.9v1.4H72.9V29.2h1.6v13Z" class="g0"/>
<path d="M84.2,29.2h1.6V43.6H84.2V29.2Z" class="g0"/>
<path d="M107.4,36.4c0,4.1,-3.4,7.5,-7.5,7.5c-4.3,0,-7.6,-3.3,-7.6,-7.6c0,-3.9,3.5,-7.3,7.6,-7.3c4.1,0,7.5,3.3,7.5,7.4ZM94,36.3c0,3.4,2.6,6.1,5.8,6.1c3.3,0,5.9,-2.7,5.9,-5.9c0,-3.4,-2.6,-6,-5.9,-6c-3.2,0,-5.8,2.6,-5.8,5.8Z" class="g0"/>
<path d="M117.4,43.6h-1.6V30.7h-3.5V29.2h8.6v1.5h-3.5V43.6Z" class="g0"/>
<path d="M135.7,35.1V29.2h1.6V43.6h-1.6v-7h-7.4v7h-1.6V29.2h1.6v5.9h7.4Z" class="g0"/>
<path d="M146.3,30.7V35H152v1.5h-5.7v5.7h5.8v1.4h-7.5V29.2h7.5v1.5h-5.8Z" class="g0"/>
<path d="M166.4,29.2h2.2l-6.8,6.7l7,7.7h-2.2L160.7,37l-.4,.4v6.2h-1.6V29.2h1.6v6.2l6.1,-6.2Z" class="g0"/>
<path d="M42.8,58.9V53h1.6V67.4H42.8v-7H35.4v7H33.8V53h1.6v5.9h7.4Z" class="g0"/>
<path d="M56.3,63.3l-1.7,4.1H52.8L59.5,52.3L66,67.4H64.2L62.5,63.3H56.3Zm3.1,-7.2L57,61.9h4.8L59.4,56.1Z" class="g0"/>
<path d="M76.3,52.2l5.5,12.2L87.5,52.2l2.2,15.2H88.1l-1.4,-10L81.8,68.1L76.9,57.4l-1.4,10H73.9L76.3,52.2Z" class="g0"/>
<path d="M99.5,53h2.6c1.5,0,2.5,.3,3.3,.9c.8,.7,1.3,1.8,1.3,3c0,1.2,-.4,2.1,-1.4,2.8c1.7,.5,2.7,1.9,2.7,3.7c0,1.2,-.5,2.3,-1.4,3.1c-.9,.7,-1.9,.9,-3.5,.9H99.5V53Zm2.8,6.4c1.1,0,1.6,-.2,2.1,-.6c.5,-.5,.8,-1.1,.8,-1.9c0,-.7,-.3,-1.5,-.8,-1.9c-.5,-.4,-1,-.5,-2,-.5h-1.3v4.9h1.2ZM103,66c1.3,0,1.9,-.2,2.5,-.7c.6,-.5,.9,-1.2,.9,-2c0,-.9,-.5,-1.7,-1.2,-2.1c-.5,-.3,-1.3,-.5,-2.4,-.5h-1.7V66H103Z" class="g0"/>
<path d="M119,61.9c0,1.4,.1,2.1,.5,2.7c.6,.9,1.8,1.6,3.1,1.6c1.2,0,2.4,-.7,3,-1.6c.4,-.6,.5,-1.3,.5,-2.7V53h1.6v9.3c0,1.6,-.3,2.5,-1,3.4c-.9,1.2,-2.5,2,-4.1,2c-1.7,0,-3.3,-.8,-4.2,-2c-.7,-.9,-1,-1.8,-1,-3.4V53H119v8.9Z" class="g0"/>
<path d="M146.2,67.4h-1.9l-4.4,-6.3h-.4v6.3h-1.6V53h2.3c1.7,0,2.7,.2,3.5,.8c1,.6,1.6,1.9,1.6,3.2c0,2.2,-1.4,3.8,-3.7,4l4.6,6.4Zm-5.7,-7.7c2.1,0,3.2,-.9,3.2,-2.7c0,-.8,-.4,-1.6,-1.1,-2c-.5,-.4,-1.1,-.5,-2.1,-.5h-1v5.2h1Z" class="g0"/>
<path d="M168.6,60.2v.4c0,2,-.3,3.3,-1.3,4.5c-1.3,1.6,-3.4,2.6,-5.5,2.6c-4.1,0,-7.4,-3.4,-7.4,-7.4c0,-4.2,3.3,-7.5,7.6,-7.5c1.5,0,3.1,.5,4.3,1.4c.6,.4,1,.8,1.7,1.7L166.8,57c-.6,-.8,-.9,-1.1,-1.4,-1.5c-.9,-.8,-2.2,-1.2,-3.4,-1.2c-3.4,0,-6,2.6,-6,6c0,3.2,2.7,5.9,5.9,5.9c1.7,0,3.5,-1,4.4,-2.5c.4,-.6,.5,-1.1,.6,-2h-4.3V60.2h6Z" class="g0"/>
<path d="M37.9,78.5c-.5,-.5,-.9,-.7,-1.5,-.7c-1.2,0,-2.1,1,-2.1,2.2c0,1.3,.9,2.2,2.1,2.2c.6,0,1,-.2,1.5,-.7V83c-.5,.3,-1,.4,-1.5,.4C34.5,83.4,33,81.9,33,80c0,-1.9,1.5,-3.3,3.4,-3.3c.5,0,1,.1,1.5,.4v1.4Z" class="g0"/>
<path d="M42.7,81.9l-.6,1.3H40.8l2.8,-6.5h.9l2.7,6.5H45.9l-.6,-1.3H42.7ZM44,78.5l-.9,2.4h1.8L44,78.5Z" class="g0"/>
<path d="M55.1,83.2H53.5L51.8,80.6h-.2v2.6H50.4V76.8h1.8c.7,0,1.3,.2,1.7,.5c.4,.3,.6,.8,.6,1.4c0,.6,-.2,1.1,-.6,1.4c-.2,.2,-.5,.3,-.9,.4l2.1,2.7ZM52,79.8c.8,0,1.2,-.4,1.2,-1c0,-.7,-.4,-1,-1.2,-1h-.4v2H52Z" class="g0"/>
<path d="M59.6,82.1h1.9v1.1H58.3V76.8h1.3v5.3Z" class="g0"/>
<path d="M72,81.1l1.7,-4.3h1.4l-2.8,6.6h-.7L68.9,76.8h1.4L72,81.1Z" class="g0"/>
<path d="M84.8,80c0,1.9,-1.5,3.4,-3.4,3.4c-2,0,-3.5,-1.5,-3.5,-3.4c0,-1.9,1.6,-3.3,3.5,-3.3c1.9,0,3.4,1.4,3.4,3.3Zm-5.6,0c0,1.2,1,2.2,2.2,2.2c1.1,0,2.1,-1,2.1,-2.2c0,-1.2,-1,-2.2,-2.1,-2.2c-1.2,0,-2.2,1,-2.2,2.2Z" class="g0"/>
<path d="M88.4,76.7h.8l3.9,4.4V76.8h1.3v6.5h-.9L89.6,78.9v4.3H88.4V76.7Z" class="g0"/>
<path d="M109.6,80c0,1.9,-1.5,3.4,-3.4,3.4c-2,0,-3.5,-1.5,-3.5,-3.4c0,-1.9,1.6,-3.3,3.5,-3.3c1.9,0,3.4,1.4,3.4,3.3ZM104,80c0,1.2,1,2.2,2.2,2.2c1.2,0,2.1,-1,2.1,-2.2c0,-1.2,-.9,-2.2,-2.1,-2.2c-1.2,0,-2.2,1,-2.2,2.2Z" class="g0"/>
<path d="M116.3,78.3c-.3,-.4,-.6,-.6,-1,-.6c-.5,0,-.9,.4,-.9,.8c0,.3,.2,.5,.9,.8c.8,.2,1,.4,1.3,.6c.4,.3,.6,.8,.6,1.4c0,1.2,-.9,2.1,-2.2,2.1c-1,0,-1.7,-.4,-2.2,-1.2l.8,-.8c.3,.5,.7,.8,1.3,.8c.6,0,1,-.4,1,-.9c0,-.2,-.1,-.5,-.4,-.6c-.1,-.1,-.3,-.2,-.8,-.4c-1.2,-.4,-1.6,-.9,-1.6,-1.8c0,-1,.9,-1.8,2,-1.8c.7,0,1.3,.2,1.9,.7l-.7,.9Z" class="g0"/>
<path d="M123.8,78.3c-.3,-.4,-.6,-.6,-1,-.6c-.5,0,-.9,.4,-.9,.8c0,.3,.2,.5,1,.8c.7,.2,1,.4,1.3,.6c.3,.3,.5,.8,.5,1.4c0,1.2,-.9,2.1,-2.2,2.1c-.9,0,-1.6,-.4,-2.2,-1.2l.8,-.8c.3,.5,.8,.8,1.4,.8c.5,0,.9,-.4,.9,-.9c0,-.2,-.1,-.5,-.3,-.6c-.2,-.1,-.4,-.2,-.9,-.4c-1.2,-.4,-1.6,-.9,-1.6,-1.8c0,-1,.9,-1.8,2,-1.8c.7,0,1.4,.2,1.9,.7l-.7,.9Z" class="g0"/>
<path d="M128.2,76.8h1.3v6.4h-1.3V76.8Z" class="g0"/>
<path d="M134.6,77.9v1.4h2.2v1.1h-2.2v1.7h2.3v1.1h-3.5V76.8h3.5v1.1h-2.3Z" class="g0"/>
<path d="M141.3,83.2V77.9h-1.4V76.8H144v1.1h-1.4v5.3h-1.3Z" class="g0"/>
<path d="M151.7,82.1v1.1h-5l3.1,-5.3h-2.6V76.8h4.7l-3.1,5.3h2.9Z" class="g0"/>
<path d="M158.9,76.8h1.5l-2.7,3l2.9,3.4h-1.7l-2.2,-2.9l-.2,.2v2.7h-1.2V76.8h1.2v2.7l2.4,-2.7Z" class="g0"/>
<path d="M163,76.8h1.5l1.4,2.2l1.3,-2.2h1.5l-2.2,3.5v2.9h-1.3V80.3L163,76.8Z" class="g0"/>
<path fill-rule="evenodd" d="M.7,1.4c.4,0,.4,.2,.7,.2c1.1,.2,2.1,0,2.9,.3c.8,.4,2,-.1,2.7,.1c.1,.2,.2,.3,.3,.4C8,2.7,8.5,2.1,9,2.9c0,.4,.1,.8,.1,1.3c.2,0,.2,-.1,.2,0C9.6,5,9.5,6,9.9,6.7c.5,1.2,.7,2.6,1.1,4.1c.2,1,.7,2.4,.9,3.4c.2,1,.3,2,.4,3c.4,1.7,1.1,3.3,1.2,5.3c.2,0,.2,-.1,.2,0c.1,.6,.2,1.3,.2,1.9c.1,0,.1,-.1,.2,-.1c.4,3.7,1.2,7.6,1.9,11.3c.4,2,.4,4.1,.7,5.9c0,1.1,.1,2.2,.1,3.3c0,1.2,0,2.4,0,3.7c.6,1.4,.3,4.1,.6,5.8c0,.7,0,1.4,0,2.1c.2,1.2,.3,3.6,0,5.1c0,.5,0,1,.1,1.5c0,1.2,-.1,2.7,-.3,3.7c0,2,-.1,3.9,-.1,5.8c-.5,3,-.4,6.8,-1,9.7c0,.6,-.1,1.2,-.1,1.8c-.2,1.5,-.4,3,-.6,4.5c-.2,.8,-.1,1.7,-.3,2.3c0,.4,0,.7,0,1.1c-.3,1.7,-.5,3.5,-.7,5.2c-.4,.1,-.5,.1,-.5,.7c.2,0,.1,-.1,.3,0c0,.6,-.1,1.2,-.1,1.8c-.2,0,-.1,-.1,-.2,.1c-.1,.2,-.1,.5,-.1,.8c-.1,0,-.2,0,-.3,0c0,.5,-.3,.7,-.4,1.1c0,.5,-.1,1,-.1,1.6q-.1,0,-.1,0q0,-.1,-.1,-.1c-.1,-.4,0,-1.2,-.2,-1.6c-.2,-.1,-.2,0,-.3,-.2c.2,-.2,.7,-.6,.7,-.8c.1,-.8,-.8,-1,-.7,-2c0,-1.4,0,-2.8,-.1,-4.1c.2,-1,.7,-2.6,.3,-3.6q0,.1,-.1,.1q0,.3,-.2,.4c-.2,.1,-.4,0,-.6,-.1c0,-.3,.1,-.3,.2,-.4c.2,-.1,.7,-.2,.8,-.2c.2,-.5,.2,-1.9,-.2,-2.1c0,.2,0,.4,-.2,.5c-.1,.1,-.3,.2,-.4,.2c0,-.7,.4,-1.9,.3,-2.7c-.1,-.2,-.2,-.5,-.3,-.7c-.1,.3,-.2,.3,-.4,.4c0,0,-.1,0,-.1,-.1c-.1,-.6,-.1,-1.2,-.3,-1.7c-.1,-.1,-.3,-.1,-.4,-.3c0,-.5,0,-1,0,-1.4c-.2,-1.1,.8,-1.6,.2,-2.8q-.1,0,-.2,.1c-.1,.4,-.3,.3,-.6,.5c.4,.8,.3,2.6,-.3,2.7c0,.2,0,.5,.1,.7c-.1,0,-.2,0,-.3,0v-.1c0,-.6,0,-1.2,0,-1.8c.1,-.3,.4,-1,.4,-1.4c-.1,-.2,-.1,-.4,-.2,-.6c.1,-1.5,.1,-3,.1,-4.4c.4,-2.7,0,-6.5,.6,-9.3c-.1,-.4,-.1,-.9,-.2,-1.3c.6,-2.9,.5,-7.2,0,-10.2c-.3,-2.2,.2,-4.9,-.3,-6.7c0,-.9,-.1,-1.8,-.1,-2.6C9.5,43.6,9.7,42,9.4,40c0,-.6,-.1,-1.3,-.1,-2q-.1,.1,-.2,.2C9.1,37.1,9,36.1,8.9,35c-.1,.2,-.1,.1,-.1,.2C8.7,33.1,8.3,30,7.6,28.5c-.1,-1,-.3,-2,-.4,-3.1C6.3,22.6,5.4,19.6,4.9,16.5c-.1,0,-.1,.1,-.1,-.1C4.7,16,4.6,15.7,4.6,15.3c-.2,0,-.2,.1,-.2,-.1c-.1,-.5,-.2,-.9,-.2,-1.4C3.3,12.1,3.2,10,2.5,8.3C2.3,7.8,1.9,7.2,1.7,6.8C1.6,6.4,1.6,6,1.4,5.7C1.1,5.3,.5,4.9,.3,4.5C.2,4.1,.2,2,.4,1.8C.5,1.6,.6,1.7,.7,1.4ZM11.3,82.1c-.1,.2,-.2,.5,-.2,.7c0,.4,.1,.7,.2,1.1c.1,0,.2,.1,.3,.1c.3,.5,-.2,1.2,.2,1.5c.2,-.1,.3,-.2,.4,-.4c.4,-1.3,-.1,-2.3,-.7,-3q-.1,0,-.2,0ZM9.8,83.3c0,0,.1,0,.2,0c0,.1,0,.2,0,.2c-.1,0,-.2,0,-.2,0c0,0,0,-.1,0,-.2Zm1.3,3.2c.3,.3,.2,1.6,0,1.9Q11,88.3,11,88.3c-.1,-.6,-.1,-1.3,.1,-1.8ZM10.6,90c.2,.1,.2,.2,.3,.5c-.1,0,-.2,.1,-.2,.2q-.1,0,-.1,0c-.1,-.1,-.1,-.2,-.1,-.3c0,-.1,.1,-.3,.1,-.4ZM147,104c-.4,0,-.6,.1,-.8,-.1c0,-.1,0,-.2,0,-.4q.1,-.1,.3,-.1c.2,.2,.4,.5,.7,.6c0,0,.1,-.1,.1,-.1c.1,-.4,-.1,-.7,-.1,-1.1c-.5,-.1,-.9,-.2,-1.2,-.5c-.3,0,-.5,0,-.7,.1c.1,.2,.2,.3,.3,.4c.1,.1,.2,.2,.2,.3c0,.1,0,.2,0,.3c-.3,0,-.4,-.1,-.6,.1c.2,.4,.4,.6,.3,1c-.7,0,-1.2,.1,-1.8,0c0,-.2,.1,-.3,.1,-.4c.3,0,.6,0,.7,-.2c-.3,-.1,-.4,-.2,-.6,-.4c.1,-.4,0,-.7,-.2,-1.1c-.3,0,-.4,-.1,-.6,-.2c-.2,.1,-.2,.2,-.5,.2c.1,.2,.1,.3,.1,.5c.1,0,.4,-.1,.6,0v.1c.1,.2,0,.9,-.1,1.1c-.7,0,-1.1,-.3,-1.7,-.5c0,.5,-.1,1,-.2,1.5c-.2,0,-.4,0,-.6,0c0,0,0,-.1,0,-.1c.1,-.3,.2,-.4,.5,-.6c0,-.3,-.1,-.7,-.3,-.9c0,.2,-.1,.3,-.2,.5c-.1,0,-.2,0,-.3,0c-.1,-.2,-.2,-.3,-.3,-.4c-.3,.1,-.5,.3,-.8,.3c-.1,-.3,0,-.5,-.1,-.9c-.2,0,-.4,-.1,-.6,-.1c0,.1,-.1,.3,-.2,.4c-.3,-.1,-.5,-.3,-.6,-.6c.3,0,.7,0,1,-.1c0,-.1,0,-.3,0,-.4c0,0,-.1,.1,-.2,.1c0,-.1,0,-.2,0,-.2c.5,-.3,.1,-.8,-.5,-.5c-.1,.9,-.8,1,-.7,2c-.6,-.1,-1,0,-1.4,.2q0,.1,0,.2c0,0,.1,0,.1,.1c.3,0,.5,0,.6,.2c-.3,.1,-1.1,.2,-1.4,0c.1,-.3,.3,-.5,.2,-.9c0,0,-.1,-.1,-.1,-.1c-.2,.1,-.3,.1,-.5,.1c0,-.3,-.1,-.5,-.1,-.7c-.2,0,-.4,-.1,-.6,-.1c-.1,.7,-.4,.7,-.5,1.3c-.4,0,-.7,.1,-1.4,.1c0,0,0,-.1,0,-.1c.3,-.1,.6,-.2,1,-.4c-.4,-.3,-.3,-.7,-.4,-1.2c-.1,0,-.2,0,-.3,0c0,-.1,0,-.2,0,-.3q-.1,0,-.2,0v.1c.2,.6,-.3,1.1,-.5,1.5c.1,.2,.2,.3,.2,.4c0,0,-.1,0,-.1,0c-.2,.1,-.5,.1,-.7,.1c-.1,-.1,-.2,-.2,-.2,-.2c0,-.1,0,-.2,0,-.4c.3,0,.3,-.1,.5,-.2q0,-.1,0,-.2c-.1,0,-.1,-.1,-.1,-.1c-.6,0,-1.1,.2,-1.4,-.2c0,-.2,0,-.4,-.1,-.6c.1,-.1,.2,-.1,.3,-.1q0,-.1,0,-.1c-.1,0,-.2,0,-.2,0c-.1,.1,-.1,.2,-.3,.3c0,-.4,-.2,-.4,-.5,-.4q0,-.2,-.1,-.3c-.1,0,-.3,-.1,-.5,-.1c0,0,0,.1,-.1,.1c.1,.1,.1,.2,.1,.2c.2,0,.3,.1,.4,.1c0,.4,-.1,.7,-.3,1c-.3,-.2,-.8,-.4,-1,-.1c.4,.6,-.3,.9,-.8,.7c0,-.5,.2,-.8,-.1,-1.2c-.3,0,-1,-.1,-1,-.1c-.4,.2,-.9,0,-1.2,.1c-.1,-.5,-.1,-1,-.2,-1.5q-.2,0,-.3,.1c0,.2,-.1,.2,-.3,.3c-.1,.4,-.1,.7,-.1,1.1q-.3,0,-.3,.3c0,.2,-.1,.4,-.1,.6c-.2,0,-.4,0,-.5,-.2c-.1,-.2,.1,-.4,0,-.6c0,-.1,-.2,-.2,-.3,-.4c-.3,.1,-.5,.4,-.7,.7c0,0,-.1,0,-.1,0c0,0,0,-.1,0,-.1c-.1,-.2,-.1,-.6,-.2,-.7c-.5,0,-.5,-.1,-.8,-.3q-.1,0,-.2,0c-.1,.3,-.1,.2,-.2,.4c-.2,0,-.4,0,-.6,.1c0,.2,0,.4,0,.6q.2,0,.3,.1v.1c-.2,0,-.4,-.1,-.6,-.1c0,-.6,-.2,-1.2,-.7,-.7c.1,.3,.2,.4,.3,.7c-.1,.1,-.1,.2,-.3,.1c-.1,0,-.2,-.1,-.4,-.1c0,-.7,-.1,-1.1,-.6,-1.4c-.2,.2,-.3,.3,-.5,.4c-.1,0,-.1,-.1,-.2,-.2c-.5,.9,-2,-.1,-2.4,.5c0,0,.1,.1,.1,.2q.8,-.1,1.5,.1c0,0,0,.1,-.1,.2c-.2,.1,-.4,.1,-.7,.2c-.3,-.4,-1.1,-.1,-1.6,-.3c0,-.2,-.1,-.2,-.2,-.4q0,-.2,.1,-.3c.1,.1,.3,.2,.4,.2l.1,-.1c0,-.1,0,-.2,0,-.3c-.2,-.1,-1,.2,-.9,-.3c-.3,-.2,-1.2,-.3,-1.6,0c0,.2,-.1,.2,-.1,.5c.2,.3,.4,.4,.3,.7c-.2,0,-.3,0,-.5,0c-.1,-.3,-.2,-.5,-.1,-.9q-.3,0,-.4,-.2q0,-.1,0,-.2c-.1,0,-.3,0,-.4,0c0,.1,0,.2,0,.3c-.5,0,-.9,.3,-1.4,0q-.1,-.4,-.1,-.6c-.1,0,-.2,0,-.2,0c0,.2,0,.4,-.1,.6c-.1,.1,-.3,.1,-.4,.2c.1,.1,.1,.2,.2,.4c-.4,.5,-1.9,.1,-2.6,.1c0,-.2,-.1,-.4,-.1,-.6c.4,0,.6,-.1,.7,-.3h-.1c-.2,-.1,-.4,-.1,-.7,-.2c0,0,0,-.1,0,-.1c.1,-.3,.1,-.6,.1,-.9q.1,-.1,.3,-.2c.1,-.2,.1,-.9,0,-1.2c0,-.1,-.1,-.2,-.1,-.2c-.2,.1,-1,1.2,-1,1.4c-.1,.4,.1,.9,-.1,1.2c-.1,.2,-.2,0,-.2,.3c.1,.1,.2,.2,.3,.3c0,.1,-.1,.3,-.1,.5c-.5,-.1,-.6,-.2,-.9,-.4c0,-.5,0,-.8,-.1,-1.1q-.1,0,-.1,0q-.4,0,-.6,.1c0,.4,-.1,.3,-.2,.6q.2,.2,.2,.5q.2,0,.3,.1c0,0,0,.1,0,.1q-.1,0,-.1,.1c-.4,-.2,-.8,-.5,-1.1,-.8c.1,-.3,.1,-.4,.1,-.7q-.1,0,-.2,0q0,.1,0,.1c0,.2,-.1,.3,-.1,.5c-.1,0,-.2,0,-.2,0c0,.2,0,.1,.1,.2c-.1,.4,-.9,.5,-1.2,.6c-.2,-.3,-.4,-.6,-.6,-.9c-.1,0,-.2,0,-.3,0c0,.1,-.1,.1,-.1,.1c.1,.3,.1,.4,0,.6c-.2,.1,-.3,.1,-.4,.2c-.1,0,-.2,-.1,-.2,-.1c-.1,-.5,-.3,-1,-.5,-1.2c-.2,0,-.4,0,-.6,0c-.2,.7,.2,.8,.3,1.3c-.4,.2,-3.2,.3,-3.4,-.1c-.7,.3,-1.5,.5,-1.8,-.3c.1,-.3,.4,-.6,.4,-.8c-.2,-.1,-.3,-.2,-.4,-.4q-.1,0,-.1,0c-.1,.2,-.3,.8,-.2,.9c0,.1,.1,.2,.2,.3c0,0,-.1,.1,-.1,.1c-.2,.1,-.4,.1,-.5,.4c-.2,0,-.4,0,-.6,0c-.1,-.5,-.6,-.7,-.9,-.9c-.1,0,-.2,0,-.3,0c0,.2,-.1,.4,-.1,.6c-.1,0,-.2,.1,-.3,.1c-.3,-.2,-.5,-.3,-.7,-.5c0,-.4,0,-.7,-.2,-.8c-.2,0,-.5,.1,-.8,.1c-.1,-.1,-.4,-.4,-.4,-.7c.1,-.2,.2,-.3,.3,-.5c.3,0,.6,0,.8,-.1c-.3,-.3,-.7,-.3,-1,-.1c-.1,.1,-.3,.2,-.4,.3c-.1,.4,0,.9,.1,1q.1,0,.2,.1c0,.2,.1,.5,.1,.8c-.8,0,-.6,.3,-1.1,.4c-.2,-.2,-.3,-.3,-.4,-.3c-.3,-.1,-.4,0,-.6,.2c-1,0,-.5,-.3,-1.6,0c-.1,-.2,-.3,-.3,-.5,-.5c0,-.2,0,-.4,0,-.6c-.2,0,-.4,.1,-.5,.1c.1,.2,.2,.4,.1,.7c-.1,.1,-.2,.1,-.3,.2c-.1,0,-.2,.1,-.3,.1c-.1,-.2,-.1,-.3,-.1,-.4c-.1,0,-.2,0,-.3,0c0,-.4,-.1,-.7,-.1,-1.1c-.2,-.1,-.5,-.1,-.7,-.2c.1,-.1,.2,-.1,.2,-.1c-.1,-.2,-.2,-.5,-.2,-.8c-.4,.1,-.4,.2,-.8,.2c.2,.3,.5,.4,.6,.6c.2,.4,-.1,.7,.2,1.1c.2,0,.3,0,.4,.1c0,.1,-.1,.1,-.1,.2c-.6,.2,-.5,.1,-.7,.8c-.5,0,-.9,0,-1.4,-.1c-.1,-.8,-.2,-1,-.4,-1.4q-.1,0,-.2,0c0,0,-.1,0,-.1,.1c0,.2,0,.4,-.1,.6c-.3,.1,-.5,.4,-.8,.6c-.3,-.2,-.5,-.3,-.9,-.2c0,.1,-.1,.2,-.1,.4c-.1,0,-.2,0,-.2,0c-.1,-.2,-.2,-.3,-.2,-.4c-.6,.1,-1.1,.6,-1.7,.3c-.1,-.2,-.1,-.5,-.2,-.8c0,.1,-.1,.1,-.2,.2c0,.1,0,.2,-.1,.3c0,0,-.1,0,-.2,0c-.2,-.2,-.3,-.3,-.5,-.5c0,-.1,0,-.8,-.1,-.9q-.1,.1,-.1,.3c-.2,0,-.3,0,-.5,.1c0,.3,-.1,.2,-.4,.4c0,.2,0,.4,-.1,.6c-.2,0,-.4,0,-.6,0c0,.1,0,.2,-.1,.3c-.1,0,-.2,0,-.2,0c-.1,-.3,-.3,-.7,-.5,-1c-.4,0,-.8,.2,-.7,-.3q-.1,0,-.1,0c-.1,-.1,-.2,-.1,-.3,-.2c-.2,.1,-.4,.1,-.5,.2c0,.1,.1,.1,0,.2c-.2,0,-.3,.1,-.5,.1c.1,.5,0,.9,-.1,1.2c-.4,-.1,-.9,-.2,-1.3,0c-.1,.1,-.1,.2,-.2,.3c-.9,0,-1.3,-.6,-1.5,-1.2c-.1,.1,-.2,.1,-.3,.1c-.2,.4,-.5,.8,-.8,1q-.1,0,-.2,-.1c-.1,-.3,-.1,-.6,-.1,-.9c-.3,0,-.5,0,-.7,0c0,.2,0,.4,-.1,.6c0,-.1,-.1,-.1,-.2,-.1H64c.1,-.3,.1,-.4,0,-.6c-.1,.1,-.2,.1,-.3,.1c.1,.3,.2,.4,0,.6c-.2,0,-.5,0,-.7,0c-.1,-.1,-.1,-.2,-.1,-.3c-.2,.1,-.2,0,-.3,.1c-.2,.3,-.1,1.1,-.7,.6c-.1,-.2,0,-.1,-.2,-.2c-.3,0,-.6,0,-.8,0c-.1,.6,-.6,.6,-1.1,.8c-.2,-.2,-.4,-.5,-.7,-.7c-.4,.3,-.7,.7,-1.3,.4c-.1,-.3,-.2,-.5,-.1,-.9c-.2,0,-.3,0,-.5,0c.1,.5,.1,1,-.2,1.4c-.3,0,-1.1,-.6,-1.2,-.9c-.1,-.3,.2,-.3,-.1,-.5c.1,.5,0,.8,-.2,1q-.1,0,-.2,0c0,.3,-.1,.5,-.1,.7c-.8,0,-2.1,0,-2.7,-.4c0,.1,0,.2,0,.2c-.1,0,-.2,0,-.3,0q-.1,0,-.1,0c-.1,-.2,-.2,-.3,-.3,-.4c0,0,-.1,0,-.1,0c-.1,.4,-.4,.7,-.5,1.3c-.1,-.1,-.2,-.1,-.3,-.1c0,-.2,-.1,-.4,-.1,-.6c-.4,.1,-.8,-.1,-.9,0c-.2,.1,-.2,.2,-.4,.2c-.4,-.2,-.7,-.5,-1.2,-.3c0,.2,-.1,.3,-.1,.4q-.1,0,-.2,0q0,-.1,0,-.1c-.1,-.4,0,-1,-.2,-1.3c0,0,-.1,0,-.1,0q-.1,.1,-.1,.1c0,.5,0,.9,0,1.3c-.5,.2,-1,.4,-1.3,.8c-.4,-.1,-.7,-.3,-1.2,-.3c-.2,.1,0,.1,-.4,.2q0,-.2,-.1,-.3c-.2,0,-.4,.1,-.6,.1c-.1,.5,-.4,.6,-.6,1c-.1,0,-.2,0,-.3,0c0,-.2,-.3,-.7,-.4,-1q-.1,0,-.1,0c-.2,.5,-.5,.6,-.6,1.1c-.4,0,-.9,-.2,-1.2,.1c.1,0,.1,.1,.1,.1c-.1,0,-.2,0,-.3,0c0,-.1,.1,-.1,.1,-.2c-.1,0,-.2,0,-.3,0q0,.1,0,.1c0,0,.1,.1,.1,.1c-.3,.1,-.3,.2,-.5,.4c-.4,-.1,-.8,-.4,-1.3,-.1c0,.1,0,.3,-.1,.5c-.2,-.1,-.2,-.2,-.4,-.3c-.4,.2,-1.5,.9,-1.9,.7c-.4,-.3,-.4,-.7,-.7,-1c-.7,.6,-1.4,1.5,-2.6,1.4c0,.1,-.1,.2,-.2,.3c-.3,.1,-.4,0,-.5,-.1c-.1,-.2,-.2,-.3,-.2,-.5c-.2,0,-.4,.1,-.6,.1c-.1,.4,-.4,.8,-.6,1.2c-.4,0,-.5,-.2,-.8,-.3c-.5,.4,-1.2,.8,-1.9,1q-.1,-.2,-.3,-.2c-.3,.7,-1.7,.6,-2.5,.8c0,0,0,.1,.1,.1c-.4,.1,-.7,.1,-1.1,.2q0,.1,0,.2c-.1,.1,-2.4,.6,-2.5,.6c-.2,.2,-.9,.5,-1.2,.6c-.7,.2,-1.4,.1,-2,.3c-1.2,.4,-2.4,1.1,-4.1,1.2c-.2,-.3,-.5,-.7,-.7,-.8c-.1,-.3,-.1,-.7,-.2,-1c-.1,0,-.1,.1,-.2,-.1c-.3,-.8,-.1,-1.7,-.5,-2.4c-.2,-.3,-1,-1.9,-.8,-2.1c-.1,-.2,-.4,-.5,-.5,-.7c-.3,-.4,-.1,-1.1,.1,-1.4c.2,-.1,.4,-.3,.6,-.4c.6,-.2,1.4,.2,2.1,0c1.8,-.4,4,-.6,5.7,-1.2c1.1,-.4,2.2,-.3,3.3,-.8c.6,-.3,3.5,-.2,3.5,-.7c0,0,.1,0,.1,0c.7,-.1,1.4,-.2,2.1,-.3c0,-.1,-.1,0,0,-.1c.7,-.1,1.4,-.2,2.1,-.2c.8,-.4,1.9,-.5,2.9,-.7c.5,0,1,-.1,1.5,-.1c.5,-.2,1.4,-.4,2,-.5c.5,0,1.1,-.1,1.6,-.1c1.8,-.5,4.4,-.8,6.5,-1.1c.4,.1,.8,.1,1.2,.1c4.5,-.8,9.4,-.9,14.3,-1.2c-.1,-.1,-.1,-.2,-.2,-.2c1.8,-.1,3.5,-.2,5.3,-.2c0,-.1,-.1,-.2,-.1,-.2c2.4,-.1,4.8,-.1,7.3,-.1c2.4,-.4,4.5,-.2,6.7,-.1c.4,.1,1.3,-.4,2.1,-.3c1.4,0,2.8,0,4.1,0c3.3,0,5.8,0,8.6,.3c2.4,0,4.8,.1,7.2,.1c1.2,.2,2.5,-.3,3.3,.1c0,.1,-.1,.1,-.1,.2c1.3,0,2.7,.1,4,.1c1,.1,2.3,-.2,3.2,.1c-.1,.1,-.2,.1,-.2,.2c2.7,.1,5.3,0,7.4,.4c1.5,.3,3.2,-.2,4.3,.3c1,0,1.9,.1,2.9,.1c.2,.1,.3,.2,.4,.3c1.4,0,2.7,.1,4,.1c3.4,.6,7,.7,10,1.3c.6,0,1.2,.1,1.9,.1c.8,.1,2.2,.5,3.1,.6c1.1,.3,2.2,.1,3,.4c.8,.1,1.7,.1,2.5,.2q-.1,.1,-.2,.2c1,0,1.9,.1,2.9,.2c0,0,0,.1,-.1,.1c3.4,.5,7.2,.9,10,1.9c.6,0,1.2,.1,1.8,.1c1.4,.5,3.5,.6,4.8,1.3c.8,.4,2.8,.2,3.5,.6c0,.1,-.1,.1,-.1,.2c.4,0,.4,.2,.8,0c.2,.1,.2,.2,.3,.4c.4,0,1.1,0,1.4,.1c0,0,0,.1,0,.1c-.1,.2,-.2,.3,-.4,.5c-.7,0,-.9,-.2,-1.5,-.4q0,-.2,-.1,-.4c-.3,.1,-.6,.3,-.9,.2c-.3,-.2,-.3,-.5,-.8,-.4c0,.1,-.1,.2,-.1,.3c-.2,0,-.3,0,-.5,-.1c-.1,-.2,0,-.1,-.1,-.2c-.4,-.2,-1.2,.1,-1.5,-.2q0,-.1,0,-.2c-1.5,0,-2.6,-.2,-3.8,-.5c-.2,0,-.3,.2,-.4,.2c0,0,-.1,0,-.2,0c-.4,-.3,-.8,0,-1.1,-.1c0,-.1,-.1,-.2,-.1,-.3c-.5,-.1,-1.1,-.1,-1.6,-.1c-.3,-.2,-.2,-.4,-.8,-.4q-.1,.1,-.3,.2c0,0,0,.1,0,.1c.3,.1,.3,.5,.2,.8c-.1,0,-.2,0,-.3,0q0,-.2,-.2,-.3c-.6,-.2,-.9,.4,-1.2,.3c0,0,-.8,-.6,-.9,-.6c-.5,-.3,-1.2,.1,-1.5,.2c-.1,0,-.8,-.2,-.9,-.3c0,-.3,.1,-.7,-.1,-.9c-.2,0,-.3,0,-.5,0c.1,.3,-.5,1.4,-.7,1.5c-.3,-.1,-.7,-.1,-1,-.2q0,.1,0,.1c0,.2,-.1,.4,-.1,.6c.1,.1,.2,.2,.4,.2q-.1,.1,-.1,.1c-.2,.1,-.3,.2,-.5,.1c-.1,0,-.1,-.1,-.2,-.1c0,-.2,0,-.4,0,-.6c-.2,0,-.4,0,-.6,-.1c0,0,0,-.1,0,-.1c.1,-.2,.2,-.1,.3,-.4q-.1,-.1,-.2,-.1c-.1,0,-.3,0,-.5,0c0,.1,0,.2,0,.3c.2,.3,.3,.3,.4,.7c-.3,.1,-.5,0,-.7,0c0,-.5,-.2,-.2,-.3,-.5c-.1,-.3,-.1,-.6,-.2,-.9c-.3,-.1,-.5,-.5,-.7,-.7c-.2,0,-.3,.1,-.4,.1c0,.3,.1,.3,0,.5c-.2,0,-.4,0,-.6,0c0,-.3,-.1,-.5,-.2,-.6q-.2,0,-.3,.1c-.1,.3,0,.7,.2,.9c.4,.1,.5,.1,.7,.3c.2,0,.3,-.1,.4,-.2q.1,0,.2,0q0,.1,0,.1q0,.1,0,.2c-.3,0,-.2,-.1,-.4,.1c.1,.2,0,.3,-.2,.2c-.1,.1,-.2,.1,-.3,.2c-.1,-.2,-.2,-.4,-.3,-.5c-.3,.2,-.5,.5,-.8,.8c-.1,-.1,-.2,-.1,-.2,-.1c-.1,-.3,-.1,-.6,-.1,-.8c-.5,.2,-1.2,.6,-1.6,.4c.1,-.6,.1,-.4,0,-1c.3,-.1,.2,0,.3,-.2c.1,0,.2,0,.2,0c.1,.2,.1,.3,.2,.5c.2,0,.4,0,.6,0c0,-.1,0,-.2,0,-.2c-.4,-.3,-.2,-.8,-.5,-1.2c-.2,.2,-.3,.5,-.3,.8c-.3,0,-.6,0,-.9,0c-.3,.1,-.4,.3,-.6,.6c0,0,-.1,-.1,-.1,-.1c0,.3,0,.4,-.2,.5c-.2,.2,-.5,.1,-.6,-.1c0,-.2,0,-.5,0,-.7ZM92.8,97.8c-.2,.2,-.3,.2,-.4,.4c.2,-.1,.1,-.1,.2,0c.1,.2,.1,.4,0,.7c-.2,-.1,-.1,-.1,-.2,.1c-.2,.2,-.2,.5,0,.7q.1,0,.2,0c.1,-.1,.3,-.2,.4,-.4c.3,-.3,.2,-1.2,-.1,-1.5c0,0,-.1,0,-.1,0Zm-9.9,.1c0,.1,0,.2,0,.3c0,0,.1,0,.2,0c.1,0,.2,.1,.3,.1c0,0,0,-.1,0,-.1c0,-.1,0,-.2,0,-.3c-.2,0,-.3,0,-.5,0ZM96.1,98c-.1,.1,-.1,0,-.1,.2c0,.1,0,.2,0,.3c.1,0,.2,0,.2,0q.1,0,.1,0c0,-.3,0,-.4,-.2,-.5ZM88,98.3q0,.2,.1,.3c0,-.1,.1,-.1,.1,-.1v-.2q-.1,0,-.2,0Zm15.3,0c-.1,.1,-.1,0,-.2,.2c.1,0,.2,0,.3,.1c.2,-.1,.2,0,.2,-.3h-.1c0,0,-.1,0,-.2,0Zm-1.7,.1c0,0,0,.1,.1,.1l.1,-.1c-.1,0,-.2,0,-.2,0Zm-15.7,.4c-.3,0,-.3,-.1,-.5,0c.1,.1,.1,.2,.2,.3c.2,0,.1,0,.3,.1c0,-.1,0,-.3,0,-.4Zm-2.6,0c-.2,.4,-.2,.5,-.4,.7c0,0,.1,0,.1,0c.1,.1,.3,.1,.4,.2q0,-.1,0,-.1c.1,-.2,.2,-.4,.1,-.6q-.1,-.1,-.2,-.2Zm31.8,.2c-.1,.2,0,.3,.1,.5c.3,0,.6,.1,.9,.1c-.1,-.2,-.2,-.4,-.3,-.6c-.3,0,-.5,0,-.7,0ZM73.4,99q-.1,.1,-.1,.2c0,0,0,.1,0,.1c.1,0,.2,0,.3,0c-.1,-.1,-.1,-.2,-.1,-.3q-.1,0,-.1,0Zm1.7,.4c-.1,0,-.2,0,-.3,0q0,.1,0,.1q0,.1,0,.1c0,0,.1,0,.1,.1c.1,-.1,.3,-.1,.5,-.2c0,-.2,.1,-.3,0,-.5q-.1,0,-.2,0c0,.1,-.1,.1,-.1,.2c0,0,0,.1,0,.2Zm9.3,-.3c0,.2,-.1,.3,-.1,.5c0,0,.1,0,.1,0c.1,0,.2,-.1,.3,-.1c-.1,-.2,-.1,-.3,-.2,-.3q0,-.1,-.1,-.1Zm28.6,0c-.1,.2,-.3,.4,-.4,.5c-.1,.3,0,.8,.1,1.1c.1,0,.2,0,.4,0c0,-.6,.1,-1.1,.3,-1.5c-.1,0,-.2,-.1,-.4,-.1Zm-48.1,.2c0,.1,-.1,.2,-.1,.3l.1,.1c.1,-.1,.2,-.1,.2,-.1v-.1c0,-.2,0,-.1,-.2,-.2Zm13.2,0c0,.1,-.1,.2,-.2,.2c0,.1,.1,.1,.1,.1c.1,0,.2,.1,.3,.1c0,0,0,-.1,0,-.1c0,-.1,0,-.2,-.1,-.3h-.1Zm24.2,0c-.1,.4,-.1,.8,.1,1.2c.1,-.4,.3,-.8,0,-1.2h-.1Zm-5.8,.1c0,.1,-.1,.1,-.1,.2q.1,0,.2,0c-.1,-.2,0,-.1,-.1,-.2Zm-9.4,0q-.1,.1,-.2,.1c.2,0,.4,0,.6,0c0,0,-.1,0,-.1,-.1c-.1,0,-.2,0,-.3,0Zm34.7,.1q0,.1,.1,.1h.1c-.1,0,-.1,-.1,-.1,-.1h-.1Zm-18.7,.2q-.1,.1,-.1,.2c0,.1,.1,.1,.1,.2q.3,0,.5,-.1c0,-.1,-.1,-.2,-.1,-.3c-.1,0,-.3,0,-.4,0Zm21.6,0c-.1,0,-.3,0,-.4,.1c0,.2,0,.3,.1,.5c.2,-.2,.3,-.2,.5,-.3c0,-.3,0,-.2,-.2,-.3Zm-48.4,0c0,.1,0,.2,0,.3c0,0,.1,0,.1,0q0,-.1,.1,-.1c-.1,-.2,0,-.1,-.2,-.2Zm-5.6,.1c.1,.2,0,.1,.2,.1c0,-.1,-.1,-.1,-.2,-.1Zm29.2,0c0,.1,-.1,.1,.1,.1c0,-.1,-.1,-.1,-.1,-.1Zm-40.8,.3c-.2,.2,-.3,.4,-.4,.6c.3,.1,.6,.1,.9,0c0,0,0,-.1,0,-.1c-.1,-.2,-.3,-.4,-.5,-.5Zm2.2,0c0,.1,0,.2,0,.3q.1,0,.1,-.1c0,-.2,0,-.1,-.1,-.2Zm2.9,0c-.1,.1,-.2,.1,-.2,.2c.1,0,.2,.1,.3,.1q.1,-.1,.1,-.1q-.1,-.1,-.2,-.2Zm66,.3c0,.2,-.1,.2,0,.4c0,0,.1,0,.1,0c0,0,.1,-.1,.2,-.1c-.1,-.1,-.1,-.2,-.1,-.3q-.1,0,-.2,0Zm-38.5,.1c-.1,.2,-.1,.4,-.2,.6q.1,0,.1,.1c.5,0,.7,-.1,1,-.1c0,-.1,0,-.2,0,-.2c-.2,0,-.3,-.1,-.4,-.4c-.2,0,-.3,0,-.5,0Zm23.5,0c-.1,.2,-.1,.1,0,.2q.1,0,.2,-.1c-.1,0,-.1,-.1,-.1,-.1q-.1,0,-.1,0Zm6.6,0c-.1,.2,-.2,.3,-.4,.5v.1c.3,0,.4,.1,.7,0c.1,-.2,0,-.1,0,-.2c0,-.1,.1,-.2,.1,-.3v-.1c-.2,0,-.3,0,-.4,0Zm-49.2,0c-.1,.4,-.1,.6,0,1c.1,0,.2,0,.2,0c.1,-.4,.2,-.3,.3,-.6c-.2,-.1,-.3,-.1,-.3,-.4q-.1,0,-.2,0Zm5.2,.2q-.1,.3,0,.5q.1,-.1,.1,-.1c0,-.1,0,-.2,0,-.3c0,0,-.1,-.1,-.1,-.1Zm18.6,0c-.4,.1,-.8,.1,-1.1,.2c0,.2,-.1,.4,-.1,.6q.1,0,.1,0c.4,.2,.9,.3,1.4,.3c0,-.3,.5,-.4,.8,-.4c-.3,-.2,-.8,-.2,-.7,-.5c-.1,0,-.1,-.1,-.1,-.1c-.1,0,-.2,-.1,-.3,-.1Zm21.4,0c-.1,.1,-.1,.2,-.1,.3c0,0,.1,.1,.1,.2c.2,-.1,.3,-.2,.4,-.2q0,-.1,0,-.1c-.2,-.1,-.3,-.1,-.4,-.2Zm-50.7,.1c-.1,0,-.2,0,-.3,.1c0,.1,.1,.1,.1,.2c.3,0,.3,.1,.4,-.1c0,0,0,-.1,0,-.1q-.1,-.1,-.2,-.1Zm52.8,0c0,0,-.1,0,-.1,.1q0,.1,.1,.2c.2,0,.4,0,.6,0c0,-.1,0,-.2,0,-.3c-.2,0,-.4,0,-.6,0Zm15.4,0l-.1,.1c.1,.2,.1,.4,.2,.6c.2,.1,.2,.2,.3,.4c.1,0,.2,0,.3,-.1c0,-.5,-.1,-.6,-.2,-1c-.2,0,-.3,0,-.5,0Zm-61.2,0q.1,.1,.1,.3c0,0,-.1,0,-.1,0c0,0,0,-.1,-.1,-.1c0,0,.1,-.1,.1,-.2Zm2.2,0c0,0,0,.1,-.1,.1c0,0,0,.1,0,.2c0,0,.1,0,.1,0c.1,0,.3,0,.4,0c0,0,.1,-.1,.1,-.1c0,0,0,-.1,0,-.1h-.1c-.1,0,-.2,-.1,-.4,-.1Zm9.8,0c0,.1,-.1,.2,-.1,.3c0,0,.1,0,.1,0c.2,.1,.6,0,.7,-.1c0,-.1,-.1,-.1,-.1,-.1c-.2,0,-.4,-.1,-.6,-.1Zm44.8,0c0,.1,0,.2,-.1,.3q.1,0,.2,0c0,0,.1,0,.1,0c0,-.1,0,-.2,0,-.3q-.1,0,-.2,0Zm-40.3,.1q0,.1,.1,.2q.1,-.1,.1,-.2q-.1,0,-.2,0Zm3.7,0c0,.2,-.1,.4,-.1,.5h.1q.1,0,.2,0c0,-.2,-.1,-.4,-.2,-.5Zm-5.6,.2c.3,0,.6,.1,.7,.2q0,.1,0,.2c-.3,0,-.5,0,-.8,0c0,-.1,-.1,-.1,-.1,-.2v-.1c.1,0,.1,-.1,.2,-.1Zm18.7,.1c-.3,.1,-.4,0,-.3,.2c-.1,.2,-.1,.3,-.1,.4c.1,0,.2,0,.3,0c.1,-.1,.4,-.2,.5,-.5c0,0,-.1,-.1,-.1,-.1c-.1,0,-.2,0,-.3,0Zm-45.7,0c-.1,.3,-.1,.5,.1,.6c.1,-.1,.2,-.3,.2,-.5c-.1,0,-.2,-.1,-.3,-.1Zm6.6,.1c0,0,0,.1,0,.1q.1,0,.2,-.1c0,0,-.1,0,-.1,0q-.1,0,-.1,0Zm.7,0c0,0,0,.1,0,.1c0,0,.1,0,.1,-.1q-.1,0,-.1,0ZM75.9,101.3c0,0,0,.1,0,.1q.1,.1,.2,.1q0,-.1,0,-.2H76c0,0,-.1,0,-.1,0Zm25,0c0,0,-.1,0,-.1,.1h.1c0,0,.1,0,.2,0v-.1q-.1,0,-.2,0Zm9.5,0h.1q-.1,0,-.1,0Zm-39.3,.1c.1,.1,.2,.1,.3,.1c0,.1,0,.2,0,.3c0,.1,-.1,.2,-.1,.4c0,0,-.1,0,-.1,0c0,0,-.1,-.1,-.1,-.1c0,-.2,0,-.3,-.1,-.5q.1,-.1,.1,-.2Zm-.7,.1c.1,.1,.2,.1,.3,.1q0,.1,0,.2c0,.1,-.1,.1,-.2,.2c0,0,-.1,0,-.1,0q-.1,-.2,0,-.5Zm56.9,.1q0,.1,0,.1v-.1Zm-17.7,.2c.1,0,.2,0,.3,0c.1,.1,.1,.2,.1,.2c0,.1,-.1,.2,-.1,.3c-.1,-.1,-.3,-.1,-.4,-.1c0,-.1,-.1,-.2,-.1,-.2c.1,-.1,.1,-.2,.2,-.2Zm24.6,.2q.1,.2,.1,.3c0,-.1,.1,-.2,.1,-.3q-.1,0,-.2,0Zm-16.9,.3c.2,0,.3,0,.5,.1h.1q0,.1,0,.1c-.3,.3,-.4,.3,-.8,.1c0,0,-.1,-.1,-.1,-.2c.1,0,.2,-.1,.3,-.1Zm34.4,0c-.1,0,-.2,0,-.3,.1c.1,.2,0,.1,.2,.2c.1,0,.3,0,.5,-.1c0,0,0,-.1,0,-.1c0,-.1,-.1,-.1,-.1,-.1c-.1,0,-.2,0,-.3,0Zm-16.4,0c0,.2,-.1,.4,0,.7h.1c0,0,.1,0,.2,-.1c0,0,0,-.1,0,-.1c-.1,-.2,-.1,-.4,-.3,-.5Zm17.2,0c0,.1,0,.2,0,.3q.1,0,.1,0c.3,0,.5,0,.7,-.2c-.3,0,-.5,-.1,-.8,-.1Zm1.8,.4c-.2,.1,-.2,0,-.3,.2q.1,0,.1,0c.2,0,.3,0,.4,.1c0,-.1,.1,-.1,.1,-.2c0,0,0,-.1,-.1,-.1q-.1,0,-.2,0Zm-29.6,0q.1,.1,.1,.3c.1,0,.1,-.1,.1,-.1c.1,0,.1,-.1,.1,-.2q.1,0,.2,0c.1,.2,.2,.3,.2,.5c-.2,0,-.5,0,-.7,.1c0,-.2,0,-.4,0,-.6Zm31.9,.3c0,.1,-.1,.2,-.1,.3c0,0,.1,0,.1,0c.2,0,.5,0,.7,0c0,-.1,0,-.2,-.1,-.2c-.2,0,-.4,-.1,-.6,-.1Zm-6.2,.2c0,0,.1,.1,.1,.2q0,-.1,.1,-.1q-.1,-.1,-.1,-.1c0,0,-.1,0,-.1,0Zm-19.8,.1q.2,0,.2,.2q.1,0,.1,0c-.1,.2,-.1,.3,-.3,.3v-.1c-.1,-.1,-.1,-.2,-.1,-.3c0,0,.1,-.1,.1,-.1Zm7.3,.1q.1,0,.2,.1c0,0,-.1,.1,-.1,.1q-.2,0,-.3,-.1q.1,-.1,.2,-.1Zm22,.1q-.1,.1,-.2,.1c0,.1,-.1,.2,-.1,.3c0,0,.1,.1,.1,.1c.1,0,.2,0,.3,0c0,-.1,0,-.2,0,-.4c0,0,-.1,0,-.1,-.1Zm-21.2,1c0,0,.1,.1,.2,.2c-.1,0,-.2,0,-.3,0c0,-.1,.1,-.2,.1,-.2Zm-97.2,0c0,.1,-.1,.2,-.1,.3c.1,0,.1,.1,.1,.2h.1c0,-.3,.1,-.4,-.1,-.5Zm106.4,0c.1,.1,0,0,.1,.2q-.1,0,-.1,0q0,-.1,0,-.2Zm-3.8,.2c.1,.1,.2,.1,.3,.1q0,.1,0,.2c-.1,.1,-.1,.2,-.2,.2c0,0,-.1,0,-.1,0c-.1,-.2,-.1,-.1,-.1,-.4q.1,0,.1,-.1Zm-.7,.1q.2,.1,.2,.3c0,0,-.1,0,-.2,0c0,-.1,0,-.2,0,-.3Zm21,0c.1,.1,.1,.2,.1,.4c-.1,0,-.2,-.1,-.2,-.2c0,0,0,-.1,.1,-.2Zm-16.3,.1c.1,0,.2,.1,.3,.1c-.1,0,-.1,.1,-.1,.1c0,0,-.1,0,-.1,0c0,0,0,-.1,-.1,-.2Zm8.4,.1c.2,.1,.5,.2,.7,.3c0,0,0,.1,0,.2c-.4,0,-.4,.1,-.4,.3c-.1,0,-.2,0,-.2,0c0,-.2,0,-.1,-.2,-.3c0,-.2,.1,-.3,.1,-.5Zm3.8,.1q.1,.1,.2,.2c0,.2,-.1,.4,-.1,.6c-.4,0,-.5,0,-.7,-.2c.2,-.2,.4,-.3,.6,-.6Zm-1.1,.5c0,0,.1,0,.2,0c.1,0,.1,.1,.2,.1c-.1,.2,-.2,.3,-.4,.4c0,-.1,-.1,-.1,-.1,-.2c-.1,0,-.1,-.1,-.1,-.1c.1,-.2,.1,-.1,.2,-.2Zm4,.7c.1,0,.2,0,.3,.1c-.1,0,-.1,.1,-.1,.2q-.1,0,-.1,0c-.1,-.1,-.1,-.2,-.1,-.3Zm14.3,.1c.3,0,.2,-.1,.3,.2h-.1q-.1,0,-.2,0c0,-.1,0,-.2,0,-.2Zm-76,16.4c0,.1,0,.2,0,.3c-.6,.1,-.9,.4,-1.3,.7c-.4,.3,-2.6,.8,-3.2,1.1c-.3,0,-.7,.1,-1.1,.1c-2.5,.8,-6.8,.7,-9.2,-.2c-.8,-.3,-3.5,-1.2,-3.6,-2c-.1,0,-.2,0,-.3,0c-.4,-.7,-1,-1.3,-1.5,-1.9c-.2,-.9,-.4,-1.8,-.7,-2.6c-.7,-3.3,1,-8.2,2.1,-9.8c.2,-.2,.6,-.2,.8,-.4c0,-.1,.1,-.3,.2,-.4c.5,-.4,1.4,-.8,2,-1c.6,-.2,1.4,0,1.9,-.3c.4,-.2,2,.3,2.3,.3c1.2,.3,2.1,.7,2.9,1c.3,0,.7,.1,1,.1c.4,.2,1.5,.8,2,.7c1,-.7,2.9,-.7,4.2,0c1.7,.8,5.6,4.2,5.2,6.8c0,1.3,-.1,2.5,-.1,3.8c-.2,1,-1.3,1.8,-2,2.4c-.4,.5,-.8,1.3,-1.6,1.3Zm-4.4,-14c-.1,0,-.2,.1,-.3,.1c0,.1,0,.2,0,.3c.1,0,.2,0,.2,0c0,.3,0,.5,-.1,.7q-.1,0,-.2,-.1c0,-.1,.1,-.2,-.2,-.1c-.4,-.1,-.8,-.2,-1.2,-.2l-.1,.1c0,.1,0,.2,-.1,.3q0,.1,-.1,.1c-.3,0,-.5,-.1,-.8,-.1c-.1,-.2,0,-.1,-.1,-.2c-.4,-.2,-1.5,-.2,-1.8,0c0,.2,0,.1,-.1,.2c-.1,0,-.2,0,-.3,0c0,.2,0,.3,-.1,.4c-.9,0,-2.7,1.7,-3.1,2.5c-.2,.5,-.1,1.2,-.5,1.5c-.2,.1,-.1,.1,-.3,0c0,-.3,0,-.7,-.1,-1c0,0,-.1,0,-.2,0c-.1,.1,-.3,0,-.3,0c-.1,.5,-.1,1,-.2,1.4c-.1,0,-.1,.1,-.2,.1c-.1,.6,-.2,1.3,-.2,1.9c-.2,.5,-.5,1.1,-.6,1.6c.1,.1,.1,.2,.2,.3c-.3,.3,0,1.2,.1,1.8c.2,.7,.2,1,.5,1.5c.6,.9,3.9,1.2,5.7,.8c2,-.3,5.9,-1.5,7,-2.5c.7,-.7,1.5,-1.5,1.9,-2.4q.1,-.1,.2,-.1q.1,0,.1,0c.5,-1.7,1,-3.2,.2,-4.7c-.2,-.3,0,-.7,-.4,-.8l-.1,-.1c0,-.6,-.5,-.7,-.7,-1.1c-.9,-1.1,-1.5,-2.2,-3.7,-2.2Z" class="g3"/>

</g>
</svg>
