<?xml version="1.0" encoding="UTF-8" standalone="no"?>
<!DOCTYPE svg PUBLIC "-//W3C//DTD SVG 1.1//EN" "http://www.w3.org/Graphics/SVG/1.1/DTD/svg11.dtd">
<svg width="100%" height="100%" viewBox="0 0 1080 1080" version="1.1" xmlns="http://www.w3.org/2000/svg" xmlns:xlink="http://www.w3.org/1999/xlink" xml:space="preserve" xmlns:serif="http://www.serif.com/" style="fill:#332B2B;fill-rule:evenodd;clip-rule:evenodd;stroke-linejoin:round;stroke-miterlimit:2;">
    <g transform="matrix(0.713189,0,0,0.713189,154.878,153.519)">
        <g transform="matrix(1,0,0,1,-8.87902,-98.3488)">
            <g transform="matrix(1.23457,0,0,1.23457,-67.9893,-96.0477)">
                <path d="M289.849,429.68C289.849,418.524 280.792,409.466 269.636,409.466L229.209,409.466C218.053,409.466 208.996,418.524 208.996,429.68L208.996,470.106C208.996,481.262 218.053,490.32 229.209,490.32L269.636,490.32C280.792,490.32 289.849,481.262 289.849,470.106L289.849,429.68Z"/>
            </g>
            <g transform="matrix(1,0,0,1.23457,11.9783,-96.0477)">
                <path d="M895.75,429.68C895.75,418.524 884.568,409.466 870.795,409.466L362.717,409.466C348.944,409.466 337.762,418.524 337.762,429.68L337.762,470.106C337.762,481.262 348.944,490.32 362.717,490.32L870.795,490.32C884.568,490.32 895.75,481.262 895.75,470.106L895.75,429.68Z"/>
            </g>
        </g>
        <g transform="matrix(1,0,0,1,-8.87902,80.6242)">
            <g transform="matrix(1.23457,0,0,1.23457,-67.9893,-96.0477)">
                <path d="M289.849,429.68C289.849,418.524 280.792,409.466 269.636,409.466L229.209,409.466C218.053,409.466 208.996,418.524 208.996,429.68L208.996,470.106C208.996,481.262 218.053,490.32 229.209,490.32L269.636,490.32C280.792,490.32 289.849,481.262 289.849,470.106L289.849,429.68Z"/>
            </g>
            <g transform="matrix(1,0,0,1.23457,11.9783,-96.0477)">
                <path d="M895.75,429.68C895.75,418.524 884.568,409.466 870.795,409.466L362.717,409.466C348.944,409.466 337.762,418.524 337.762,429.68L337.762,470.106C337.762,481.262 348.944,490.32 362.717,490.32L870.795,490.32C884.568,490.32 895.75,481.262 895.75,470.106L895.75,429.68Z"/>
            </g>
        </g>
        <g transform="matrix(1,0,0,1,-8.87902,263.409)">
            <g transform="matrix(1.23457,0,0,1.23457,-67.9893,-96.0477)">
                <path d="M289.849,429.68C289.849,418.524 280.792,409.466 269.636,409.466L229.209,409.466C218.053,409.466 208.996,418.524 208.996,429.68L208.996,470.106C208.996,481.262 218.053,490.32 229.209,490.32L269.636,490.32C280.792,490.32 289.849,481.262 289.849,470.106L289.849,429.68Z"/>
            </g>
            <g transform="matrix(1,0,0,1.23457,11.9783,-96.0477)">
                <path d="M895.75,429.68C895.75,418.524 884.568,409.466 870.795,409.466L362.717,409.466C348.944,409.466 337.762,418.524 337.762,429.68L337.762,470.106C337.762,481.262 348.944,490.32 362.717,490.32L870.795,490.32C884.568,490.32 895.75,481.262 895.75,470.106L895.75,429.68Z"/>
            </g>
        </g>
    </g>
    <g transform="matrix(1.10802,0,0,1.10802,-118.451,-120.627)">
        <path d="M211.681,816.173C200.595,822.573 192.745,833.378 190.085,845.899C187.425,858.421 190.204,871.483 197.731,881.838C288.757,1007.72 435.3,1083.58 592.644,1083.58C861.623,1083.58 1080,865.202 1080,596.223C1080,327.244 861.623,108.868 592.644,108.868C435.3,108.868 288.757,184.724 197.74,310.615C190.215,320.967 187.437,334.027 190.096,346.545C192.756,359.064 200.603,369.866 211.686,376.264C211.681,376.274 211.681,376.274 211.682,376.274C233.877,389.088 262.153,383.228 277.427,362.649C350.871,263.498 467.515,203.902 592.644,203.902C809.172,203.902 984.966,379.695 984.966,596.223C984.966,812.751 809.172,988.545 592.644,988.545C467.515,988.545 350.871,928.949 277.426,829.799C262.152,809.22 233.877,803.361 211.683,816.174C211.681,816.172 211.681,816.173 211.681,816.173Z"/>
    </g>
</svg>
