<?xml version="1.0" encoding="UTF-8" standalone="no"?>
<!DOCTYPE svg PUBLIC "-//W3C//DTD SVG 1.1//EN" "http://www.w3.org/Graphics/SVG/1.1/DTD/svg11.dtd">
<svg width="100%" height="100%" viewBox="0 0 1080 1080" version="1.1" xmlns="http://www.w3.org/2000/svg" xmlns:xlink="http://www.w3.org/1999/xlink" xml:space="preserve" xmlns:serif="http://www.serif.com/" style="fill:#332B2B;fill-rule:evenodd;clip-rule:evenodd;stroke-linecap:round;stroke-linejoin:round;stroke-miterlimit:1.5;">
    <g transform="matrix(0.907821,1.54547e-06,-1.54547e-06,0.907821,72.1378,63.688)">
        <path d="M547.917,549.242L547.089,1026.03L976.775,783.76L976.749,299.766L547.917,549.242Z" style="stroke:url(#_Linear1);stroke-width:1.1px;"/>
    </g>
    <g transform="matrix(0.856165,1.45753e-06,-1.27618e-06,0.749636,-48.8974,-48.1466)">
        <path d="M268.445,449.645L689.428,718.25L1106.6,445.63L684.508,177.028L268.445,449.645Z" style="stroke:url(#_Linear2);stroke-width:1.24px;"/>
    </g>
    <g transform="matrix(-0.889193,-1.51376e-06,-1.50598e-06,0.884624,997.919,81.646)">
        <path d="M547.917,549.242L547.089,1026.03L976.775,783.76L976.749,299.766L547.917,549.242Z" style="stroke:url(#_Linear3);stroke-width:1.13px;"/>
    </g>
    <defs>
        <linearGradient id="_Linear1" x1="0" y1="0" x2="-562.36" y2="-949.818" gradientUnits="userSpaceOnUse" gradientTransform="matrix(5.33118e-15,2e-06,87.0648,-1.22465e-22,540,976.106)"><stop offset="0" style="stop-color:white;stop-opacity:1"/><stop offset="1" style="stop-color:rgb(166,166,166);stop-opacity:1"/></linearGradient>
        <linearGradient id="_Linear2" x1="0" y1="0" x2="-413.431" y2="-683.579" gradientUnits="userSpaceOnUse" gradientTransform="matrix(5.33118e-15,2e-06,87.0648,-1.22465e-22,540,976.106)"><stop offset="0" style="stop-color:white;stop-opacity:1"/><stop offset="1" style="stop-color:rgb(166,166,166);stop-opacity:1"/></linearGradient>
        <linearGradient id="_Linear3" x1="0" y1="0" x2="-517.753" y2="-945.132" gradientUnits="userSpaceOnUse" gradientTransform="matrix(5.33118e-15,2e-06,87.0648,-1.22465e-22,540,976.106)"><stop offset="0" style="stop-color:white;stop-opacity:1"/><stop offset="1" style="stop-color:rgb(166,166,166);stop-opacity:1"/></linearGradient>
    </defs>
</svg>
