<?xml version="1.0" encoding="UTF-8" standalone="no"?>
<!DOCTYPE svg PUBLIC "-//W3C//DTD SVG 1.1//EN" "http://www.w3.org/Graphics/SVG/1.1/DTD/svg11.dtd">
<svg width="100%" height="100%" viewBox="0 0 1080 1080" version="1.1" xmlns="http://www.w3.org/2000/svg" xmlns:xlink="http://www.w3.org/1999/xlink" xml:space="preserve" xmlns:serif="http://www.serif.com/" style="fill:#332B2B;fill-rule:evenodd;clip-rule:evenodd;stroke-linecap:round;stroke-linejoin:round;stroke-miterlimit:1.5;">
    <g transform="matrix(0.907821,1.54547e-06,-1.54547e-06,0.907821,72.1378,63.688)">
        <path d="M603.802,516.731C569.193,536.865 547.874,573.857 547.805,613.896C547.64,708.757 547.336,883.935 547.183,972.206C547.163,983.369 553.076,993.702 562.711,999.342C572.345,1004.98 584.25,1005.08 593.974,999.594C673.461,954.777 834.367,864.054 920.063,815.736C955.101,795.981 976.774,758.878 976.771,718.656C976.766,623.269 976.757,447.08 976.752,356.621C976.752,344.919 970.498,334.109 960.354,328.274C950.209,322.44 937.721,322.471 927.606,328.356C847.267,375.093 688.312,467.566 603.802,516.731Z" style="stroke:url(#_Linear1);stroke-width:1.1px;"/>
    </g>
    <g transform="matrix(0.856165,1.45753e-06,-1.27618e-06,0.749636,-49.1636,-28.9509)">
        <path d="M321.122,415.129C310.377,422.17 303.779,435.267 303.85,449.414C303.92,463.562 310.649,476.572 321.463,483.472C400.274,533.757 547.855,627.921 630.143,680.424C666.93,703.895 711.796,703.633 748.37,679.731C830.562,626.019 978.218,529.526 1055.8,478.824C1066.15,472.063 1072.5,459.464 1072.44,445.852C1072.37,432.239 1065.89,419.723 1055.48,413.097C976.403,362.779 824.935,266.39 742.104,213.679C706.365,190.937 662.805,191.248 627.319,214.5C546.373,267.538 399.532,363.753 321.122,415.129Z" style="stroke:url(#_Linear2);stroke-width:1.24px;"/>
    </g>
    <g transform="matrix(-0.889193,-1.51376e-06,-1.50598e-06,0.884624,997.919,81.646)">
        <path d="M602.999,517.198C568.899,537.036 547.874,573.611 547.806,613.213C547.646,705.518 547.352,874.879 547.195,965.325C547.173,977.933 553.809,989.606 564.628,995.987C575.446,1002.37 588.821,1002.5 599.761,996.331C680.814,950.631 835.511,863.409 919.345,816.141C954.814,796.143 976.774,758.45 976.771,717.572C976.766,621.519 976.757,445.192 976.752,355.434C976.751,343.959 970.658,333.357 960.768,327.626C950.878,321.894 938.697,321.904 928.816,327.652C848.621,374.306 687.726,467.907 602.999,517.198Z" style="stroke:url(#_Linear3);stroke-width:1.13px;"/>
    </g>
    <defs>
        <linearGradient id="_Linear1" x1="0" y1="0" x2="-562.36" y2="-949.818" gradientUnits="userSpaceOnUse" gradientTransform="matrix(5.33118e-15,2e-06,87.0648,-1.22465e-22,540,976.106)"><stop offset="0" style="stop-color:white;stop-opacity:1"/><stop offset="1" style="stop-color:rgb(166,166,166);stop-opacity:1"/></linearGradient>
        <linearGradient id="_Linear2" x1="0" y1="0" x2="-413.164" y2="-702.774" gradientUnits="userSpaceOnUse" gradientTransform="matrix(5.33118e-15,2e-06,87.0648,-1.22465e-22,540,976.106)"><stop offset="0" style="stop-color:white;stop-opacity:1"/><stop offset="1" style="stop-color:rgb(166,166,166);stop-opacity:1"/></linearGradient>
        <linearGradient id="_Linear3" x1="0" y1="0" x2="-517.753" y2="-945.132" gradientUnits="userSpaceOnUse" gradientTransform="matrix(5.33118e-15,2e-06,87.0648,-1.22465e-22,540,976.106)"><stop offset="0" style="stop-color:white;stop-opacity:1"/><stop offset="1" style="stop-color:rgb(166,166,166);stop-opacity:1"/></linearGradient>
    </defs>
</svg>
