<?xml version="1.0" encoding="UTF-8" standalone="no"?>
<!DOCTYPE svg PUBLIC "-//W3C//DTD SVG 1.1//EN" "http://www.w3.org/Graphics/SVG/1.1/DTD/svg11.dtd">
<svg width="100%" height="100%" viewBox="0 0 1080 1080" version="1.1" xmlns="http://www.w3.org/2000/svg" xmlns:xlink="http://www.w3.org/1999/xlink" xml:space="preserve" xmlns:serif="http://www.serif.com/" style="fill:#ebe0e0;fill-rule:evenodd;clip-rule:evenodd;stroke-linejoin:round;stroke-miterlimit:2;">
    <g transform="matrix(12.7384,0,0,12.3649,-2018.46,0)">
        <path d="M168.586,67.949C175.8,77.136 187.006,83.047 199.565,83.047C221.276,83.047 238.94,65.384 238.94,43.673C238.94,21.961 221.276,4.297 199.565,4.297C183.066,4.297 168.904,14.498 163.055,28.924L158.455,28.924C164.518,12.079 180.658,0 199.566,0C223.647,0 243.238,19.591 243.238,43.673C243.238,67.753 223.647,87.344 199.566,87.344C184.462,87.344 171.126,79.637 163.28,67.95" style="fill-rule:nonzero;"/>
    </g>
    <g transform="matrix(1,0,0,1,-8.87902,-98.3488)">
        <g transform="matrix(1.23457,0,0,1.23457,-67.9893,-96.0477)">
            <path d="M289.849,429.68C289.849,418.524 280.792,409.466 269.636,409.466L229.209,409.466C218.053,409.466 208.996,418.524 208.996,429.68L208.996,470.106C208.996,481.262 218.053,490.32 229.209,490.32L269.636,490.32C280.792,490.32 289.849,481.262 289.849,470.106L289.849,429.68Z"/>
        </g>
        <g transform="matrix(1,0,0,1.23457,11.9783,-96.0477)">
            <path d="M895.75,429.68C895.75,418.524 884.568,409.466 870.795,409.466L362.717,409.466C348.944,409.466 337.762,418.524 337.762,429.68L337.762,470.106C337.762,481.262 348.944,490.32 362.717,490.32L870.795,490.32C884.568,490.32 895.75,481.262 895.75,470.106L895.75,429.68Z"/>
        </g>
    </g>
    <g transform="matrix(1,0,0,1,-8.87902,80.6242)">
        <g transform="matrix(1.23457,0,0,1.23457,-67.9893,-96.0477)">
            <path d="M289.849,429.68C289.849,418.524 280.792,409.466 269.636,409.466L229.209,409.466C218.053,409.466 208.996,418.524 208.996,429.68L208.996,470.106C208.996,481.262 218.053,490.32 229.209,490.32L269.636,490.32C280.792,490.32 289.849,481.262 289.849,470.106L289.849,429.68Z"/>
        </g>
        <g transform="matrix(1,0,0,1.23457,11.9783,-96.0477)">
            <path d="M895.75,429.68C895.75,418.524 884.568,409.466 870.795,409.466L362.717,409.466C348.944,409.466 337.762,418.524 337.762,429.68L337.762,470.106C337.762,481.262 348.944,490.32 362.717,490.32L870.795,490.32C884.568,490.32 895.75,481.262 895.75,470.106L895.75,429.68Z"/>
        </g>
    </g>
    <g transform="matrix(1,0,0,1,-8.87902,259.597)">
        <g transform="matrix(1.23457,0,0,1.23457,-67.9893,-96.0477)">
            <path d="M289.849,429.68C289.849,418.524 280.792,409.466 269.636,409.466L229.209,409.466C218.053,409.466 208.996,418.524 208.996,429.68L208.996,470.106C208.996,481.262 218.053,490.32 229.209,490.32L269.636,490.32C280.792,490.32 289.849,481.262 289.849,470.106L289.849,429.68Z"/>
        </g>
        <g transform="matrix(1,0,0,1.23457,11.9783,-96.0477)">
            <path d="M895.75,429.68C895.75,418.524 884.568,409.466 870.795,409.466L362.717,409.466C348.944,409.466 337.762,418.524 337.762,429.68L337.762,470.106C337.762,481.262 348.944,490.32 362.717,490.32L870.795,490.32C884.568,490.32 895.75,481.262 895.75,470.106L895.75,429.68Z"/>
        </g>
    </g>
</svg>
