<?xml version="1.0" encoding="UTF-8" standalone="no"?>
<!DOCTYPE svg PUBLIC "-//W3C//DTD SVG 1.1//EN" "http://www.w3.org/Graphics/SVG/1.1/DTD/svg11.dtd">
<svg width="100%" height="100%" viewBox="0 0 1280 800" version="1.1" xmlns="http://www.w3.org/2000/svg" xmlns:xlink="http://www.w3.org/1999/xlink" xml:space="preserve" xmlns:serif="http://www.serif.com/" style="fill-rule:evenodd;clip-rule:evenodd;stroke-linejoin:round;stroke-miterlimit:2;">
    <path d="M433.734,196.018C406.169,174.36 371.598,161.524 334.015,161.524C245.557,161.524 173.534,232.881 171.307,321.814C79.969,356.439 14.952,445.57 14.952,549.972C14.952,673.333 105.635,775.3 223.295,791.362L223.295,793.6L1056.8,793.6L1056.8,793.205C1173.02,786.359 1265.14,688.934 1265.14,569.72C1265.14,454.72 1179.44,359.994 1069.11,347.289C1069.57,340.311 1069.83,333.202 1069.83,326.093C1069.83,147.898 921.135,3.472 737.738,3.472C602.007,3.472 485.263,82.597 433.734,196.018ZM927.207,543.127L927.207,560.165C927.207,574.279 916.069,585.721 902.329,585.721L529.151,585.721L529.151,636.834C529.151,659.587 502.304,670.954 486.681,654.906L403.752,569.718C394.037,559.737 394.037,543.555 403.752,533.576L486.681,448.388C502.245,432.402 529.151,443.611 529.151,466.458L529.151,517.571L902.329,517.571C916.069,517.571 927.207,529.013 927.207,543.127ZM395.284,362.311L395.284,345.273C395.284,331.159 406.423,319.717 420.163,319.717L793.34,319.717L793.34,268.604C793.34,245.852 820.187,234.484 835.811,250.533L918.739,335.721C928.454,345.701 928.454,361.883 918.739,371.863L835.811,457.051C820.246,473.036 793.34,461.828 793.34,438.98L793.34,387.867L420.163,387.867C406.423,387.867 395.284,376.426 395.284,362.311Z" style="fill:#ebe0e0;fill-rule:nonzero;"/>
</svg>
