<?xml version="1.0" encoding="UTF-8" standalone="no"?>
<!DOCTYPE svg PUBLIC "-//W3C//DTD SVG 1.1//EN" "http://www.w3.org/Graphics/SVG/1.1/DTD/svg11.dtd">
<svg width="100%" height="100%" viewBox="0 0 1080 1080" version="1.1" xmlns="http://www.w3.org/2000/svg" xmlns:xlink="http://www.w3.org/1999/xlink" xml:space="preserve" xmlns:serif="http://www.serif.com/" style="fill:#ebe0e0;fill-rule:evenodd;clip-rule:evenodd;stroke-linejoin:round;stroke-miterlimit:2;">
    <g transform="matrix(0.949928,0,0,0.949928,-49.542,-151.398)">
        <circle cx="565.326" cy="719.335" r="158.983"/>
    </g>
    <g transform="matrix(0.688923,0,0,0.688923,461.106,-281.794)">
        <circle cx="565.326" cy="719.335" r="158.983"/>
    </g>
    <g transform="matrix(0.7507,0,0,0.7507,483.739,18.5324)">
        <circle cx="565.326" cy="719.335" r="158.983"/>
    </g>
    <g transform="matrix(0.514405,0,0,0.514405,423.104,558.041)">
        <circle cx="565.326" cy="719.335" r="158.983"/>
    </g>
    <g transform="matrix(0.583904,0,0,0.583904,89.3818,-216.434)">
        <circle cx="565.326" cy="719.335" r="158.983"/>
    </g>
    <g transform="matrix(0.844909,0,0,0.844909,-294.584,175.433)">
        <circle cx="565.326" cy="719.335" r="158.983"/>
    </g>
    <g transform="matrix(0.276883,1.54362,-0.984291,0.176555,1652.88,-599.649)">
        <rect x="389.83" y="900.526" width="309.374" height="65.803"/>
    </g>
    <g transform="matrix(0.760247,1.37166,-0.87464,0.484773,1001,-484.221)">
        <rect x="389.83" y="900.526" width="309.374" height="65.803"/>
    </g>
    <g transform="matrix(1.22599,-0.977943,0.623587,0.781754,-911.356,454.126)">
        <rect x="389.83" y="900.526" width="309.374" height="65.803"/>
    </g>
    <g transform="matrix(1.55836,0.175912,-0.112171,0.993689,-51.5475,-477.654)">
        <rect x="389.83" y="900.526" width="309.374" height="65.803"/>
    </g>
    <g transform="matrix(-0.34372,-1.53012,0.975686,-0.219174,-260.551,1434.72)">
        <rect x="389.83" y="900.526" width="309.374" height="65.803"/>
    </g>
    <g transform="matrix(1.17832,-1.03488,0.659896,0.751357,-604.024,241.452)">
        <rect x="389.83" y="900.526" width="309.374" height="65.803"/>
    </g>
</svg>
