<?xml version="1.0" encoding="UTF-8" standalone="no"?>
<!DOCTYPE svg PUBLIC "-//W3C//DTD SVG 1.1//EN" "http://www.w3.org/Graphics/SVG/1.1/DTD/svg11.dtd">
<svg width="100%" height="100%" viewBox="0 0 1280 800" version="1.1" xmlns="http://www.w3.org/2000/svg" xmlns:xlink="http://www.w3.org/1999/xlink" xml:space="preserve" xmlns:serif="http://www.serif.com/" style="fill-rule:evenodd;clip-rule:evenodd;stroke-linejoin:round;stroke-miterlimit:2;">
    <path d="M433.734,196.018C406.169,174.36 371.598,161.524 334.015,161.524C245.557,161.524 173.534,232.881 171.307,321.814C79.969,356.439 14.952,445.57 14.952,549.972C14.952,673.333 105.635,775.3 223.295,791.362L223.295,793.6L1056.8,793.6L1056.8,793.205C1173.02,786.359 1265.14,688.934 1265.14,569.72C1265.14,454.72 1179.44,359.994 1069.11,347.289C1069.57,340.311 1069.83,333.202 1069.83,326.093C1069.83,147.898 921.135,3.472 737.738,3.472C602.007,3.472 485.263,82.597 433.734,196.018ZM984.914,564.026L984.914,585.002C984.914,602.379 970.827,616.466 953.45,616.466L481.49,616.466L481.49,679.394C481.49,707.406 447.536,721.401 427.777,701.643L322.897,596.763C310.61,584.475 310.61,564.553 322.897,552.266L427.777,447.386C447.462,427.706 481.49,441.505 481.49,469.634L481.49,532.562L953.45,532.562C970.827,532.562 984.914,546.649 984.914,564.026ZM312.187,341.412L312.187,320.436C312.187,303.059 326.274,288.972 343.651,288.972L815.611,288.972L815.611,226.044C815.611,198.032 849.565,184.037 869.324,203.795L974.204,308.675C986.491,320.963 986.491,340.885 974.204,353.172L869.324,458.052C849.64,477.733 815.611,463.933 815.611,435.804L815.611,372.876L343.651,372.876C326.274,372.876 312.187,358.79 312.187,341.412Z" style="fill:#ebe0e0;fill-rule:nonzero;"/>
</svg>
