<?xml version="1.0" standalone="no"?>
<!DOCTYPE svg PUBLIC "-//W3C//DTD SVG 20010904//EN"
 "http://www.w3.org/TR/2001/REC-SVG-20010904/DTD/svg10.dtd">
<svg version="1.0" xmlns="http://www.w3.org/2000/svg"
 width="1248.000000pt" height="1248.000000pt" viewBox="0 0 1248.000000 1248.000000"
 preserveAspectRatio="xMidYMid meet">
<metadata>
Created by potrace 1.11, written by Peter Selinger 2001-2013
</metadata>
<g transform="translate(0.000000,1248.000000) scale(0.100000,-0.100000)"
fill="#000000" stroke="none">
<path d="M7718 10035 c-2 -2 -57 -6 -123 -9 -66 -3 -120 -6 -120 -7 0 -1 -25
-3 -55 -4 -53 -3 -151 -12 -215 -19 -16 -2 -61 -7 -98 -11 -38 -3 -78 -8 -90
-10 -11 -3 -43 -7 -71 -10 -28 -3 -76 -10 -106 -15 -30 -5 -73 -12 -95 -15
-52 -8 -84 -13 -115 -20 -14 -2 -38 -7 -54 -9 -16 -3 -52 -10 -80 -15 -28 -6
-62 -12 -76 -15 -14 -2 -43 -9 -65 -14 -22 -6 -56 -13 -76 -16 -20 -3 -48 -10
-63 -15 -14 -6 -26 -9 -26 -6 0 2 -15 -1 -32 -6 -18 -6 -42 -12 -53 -14 -11
-2 -38 -9 -60 -15 -22 -6 -47 -12 -55 -14 -8 -2 -35 -9 -60 -16 -25 -7 -54
-14 -65 -17 -22 -5 -33 -8 -55 -15 -8 -3 -46 -14 -85 -26 -250 -76 -573 -191
-723 -258 -29 -13 -55 -24 -58 -24 -3 0 -32 -13 -65 -29 -32 -17 -59 -28 -59
-27 0 11 -483 -242 -488 -256 -2 -4 -8 -8 -14 -8 -13 0 -132 -71 -136 -82 -2
-4 -8 -8 -14 -8 -6 0 -26 -11 -44 -25 -18 -14 -35 -25 -39 -25 -3 0 -11 -5
-18 -10 -7 -6 -68 -49 -136 -98 -256 -180 -506 -412 -676 -626 -16 -21 -45
-54 -64 -74 -27 -30 -85 -104 -138 -178 -40 -55 -136 -258 -149 -316 -1 -5 -3
-10 -4 -13 -1 -3 -4 -9 -5 -15 -1 -5 -4 -13 -5 -17 -2 -5 -4 -12 -5 -18 -2 -5
-4 -12 -5 -15 -1 -3 -3 -12 -5 -20 -1 -8 -7 -40 -13 -70 -20 -98 -26 -172 -26
-300 0 -125 9 -264 18 -278 3 -5 7 -32 11 -62 3 -29 8 -56 10 -60 2 -4 7 -20
9 -36 15 -78 39 -164 85 -301 22 -64 38 -119 36 -121 -2 -2 -6 7 -10 20 -4 13
-10 25 -14 28 -3 3 -15 24 -26 48 l-20 43 -38 -29 c-41 -33 -217 -127 -217
-116 0 3 -6 2 -12 -4 -23 -17 -186 -69 -278 -87 -101 -20 -281 -25 -386 -11
-117 15 -263 70 -389 146 -79 47 -96 61 -185 150 -102 102 -186 232 -228 355
-6 17 -13 39 -18 50 -4 11 -8 27 -10 35 -2 8 -9 45 -17 82 -21 99 -15 292 12
402 12 49 26 95 32 103 7 7 8 13 5 13 -11 0 75 160 116 214 80 107 191 204
309 269 56 30 165 76 198 83 14 3 28 7 31 9 4 2 20 7 36 9 16 3 40 9 54 12 36
9 327 9 375 0 22 -4 51 -9 65 -12 14 -3 34 -6 45 -8 71 -12 320 -121 355 -156
3 -3 23 -18 44 -34 l39 -29 24 29 c12 16 23 32 23 36 0 5 15 29 32 55 82 120
86 129 60 153 -12 11 -24 20 -27 20 -3 0 -27 15 -53 33 -65 46 -241 130 -297
142 -17 4 -39 10 -50 15 -24 10 -108 30 -150 36 -16 2 -41 6 -55 10 -44 10
-333 13 -395 3 -33 -5 -74 -11 -90 -13 -84 -12 -212 -50 -315 -94 -216 -92
-397 -231 -529 -408 -28 -38 -54 -73 -59 -79 -4 -5 -27 -48 -51 -95 -56 -109
-101 -238 -117 -335 -1 -11 -6 -31 -9 -45 -4 -14 -8 -90 -11 -169 -2 -79 -7
-147 -10 -152 -3 -5 0 -9 6 -9 6 0 10 -6 9 -12 -3 -13 9 -106 18 -143 3 -11 6
-27 7 -35 1 -9 5 -20 8 -25 3 -6 11 -30 18 -55 27 -99 133 -291 216 -389 66
-79 165 -166 255 -226 90 -61 259 -148 287 -148 6 0 12 -3 12 -7 0 -4 6 -7 13
-7 6 -1 44 -11 82 -22 39 -12 86 -24 105 -27 19 -3 37 -7 41 -9 37 -23 452
-23 539 0 8 2 31 6 50 9 56 8 230 63 295 92 33 15 66 28 73 30 7 1 20 8 28 15
8 6 37 24 64 38 27 14 59 35 73 46 25 21 63 45 72 45 3 0 5 -5 5 -12 0 -6 13
-40 30 -75 16 -34 30 -68 30 -73 0 -6 5 -10 12 -10 6 0 8 -3 5 -7 -4 -3 -3
-11 2 -17 4 -6 30 -51 56 -101 26 -49 59 -108 74 -130 14 -22 33 -53 41 -70 8
-16 17 -32 20 -35 3 -3 21 -30 40 -60 19 -30 38 -59 42 -65 4 -5 44 -62 89
-125 75 -105 199 -267 241 -314 10 -11 18 -23 18 -27 0 -3 -28 -16 -62 -29
-78 -28 -200 -86 -253 -119 -120 -78 -263 -205 -330 -296 -17 -22 -33 -42 -36
-45 -12 -11 -106 -178 -126 -225 -24 -58 -71 -203 -77 -243 -3 -15 -8 -43 -11
-62 -5 -29 -8 -66 -17 -195 -2 -24 12 -212 18 -235 3 -14 8 -38 10 -54 8 -43
52 -173 76 -225 12 -25 22 -48 23 -51 0 -3 8 -16 16 -30 9 -14 31 -50 50 -80
67 -108 179 -228 292 -313 129 -97 348 -201 467 -223 14 -3 32 -7 40 -10 8 -3
29 -8 45 -11 17 -2 41 -6 55 -9 117 -22 362 -23 475 0 11 2 40 7 65 12 25 4
47 8 50 9 3 1 19 5 35 9 79 21 170 54 253 93 29 14 34 14 57 -1 25 -16 28 -16
88 20 258 155 484 435 563 699 10 33 21 64 25 68 6 8 85 -30 116 -55 9 -7 12
-120 12 -438 0 -236 2 -433 4 -437 3 -5 67 -8 144 -8 l138 0 1 350 c1 193 2
351 3 353 1 3 313 -158 329 -170 6 -6 12 -7 12 -4 0 4 13 -2 29 -13 16 -12 32
-21 35 -21 3 0 36 -14 73 -31 188 -86 268 -121 413 -179 58 -23 116 -46 130
-52 14 -6 31 -12 38 -14 8 -1 21 -6 30 -10 9 -4 22 -8 27 -10 6 -1 46 -16 90
-33 44 -17 81 -31 82 -31 4 -1 17 -5 110 -35 58 -19 86 -33 98 -51 20 -31 44
-61 67 -83 14 -14 42 -16 195 -15 160 2 192 -1 319 -27 139 -29 160 -32 259
-45 28 -3 53 -7 56 -9 3 -2 37 -7 75 -10 38 -4 83 -9 99 -11 152 -19 563 -26
735 -12 47 3 85 7 85 8 0 1 16 3 35 5 62 7 104 13 140 20 19 4 55 10 80 15
103 18 351 94 412 126 15 8 29 14 30 12 6 -4 178 87 243 129 210 136 352 285
468 490 26 45 47 85 47 88 0 3 9 24 19 48 35 74 82 239 95 332 2 17 5 30 6 30
8 0 12 315 5 375 -2 19 -7 58 -10 86 -3 29 -8 62 -11 75 -3 13 -7 33 -9 44 -1
11 -6 36 -9 56 -4 19 -20 82 -37 140 -16 57 -31 109 -32 116 -2 7 -6 16 -10
19 -4 4 -7 15 -7 24 0 10 -13 49 -29 88 -16 39 -27 73 -23 76 3 3 0 6 -6 6 -7
0 -12 7 -12 15 0 8 -4 23 -9 33 -6 9 -38 76 -71 147 -59 124 -179 342 -229
415 -6 8 -29 44 -52 80 -23 36 -45 67 -50 68 -5 2 -9 8 -9 13 0 9 -27 50 -57
88 -7 9 -37 48 -65 87 -29 39 -75 99 -102 133 -26 34 -47 64 -45 65 2 2 50 30
107 62 138 79 130 74 195 117 31 20 58 36 60 34 1 -1 16 10 32 26 16 15 34 27
38 27 16 0 277 199 376 285 125 110 220 202 296 289 28 32 62 71 78 88 15 16
27 33 27 37 0 3 13 21 29 39 16 17 48 62 72 100 24 37 47 69 50 72 20 15 137
261 175 367 24 68 44 125 44 128 0 3 0 6 1 8 2 6 11 74 12 85 0 6 3 12 6 12
17 0 21 343 6 436 -16 94 -31 169 -35 169 -1 0 -3 7 -5 16 -8 41 -82 212 -123
284 -101 178 -281 385 -452 521 -41 32 -77 61 -80 64 -7 7 -165 111 -232 154
-32 20 -58 32 -58 28 0 -4 -4 -2 -8 4 -11 18 -321 166 -447 214 -60 23 -119
46 -130 51 -11 4 -65 22 -120 39 -55 17 -109 35 -120 40 -25 10 -329 87 -370
94 -16 2 -30 5 -30 6 0 2 -13 5 -60 13 -16 3 -41 8 -55 11 -46 10 -341 57
-388 62 -61 7 -127 14 -177 18 -22 2 -76 7 -120 11 -44 4 -98 9 -120 11 -49 5
-812 14 -817 9z m777 -179 c83 -8 197 -17 255 -21 30 -2 55 -4 55 -5 0 -1 20
-3 45 -5 25 -2 56 -6 70 -9 14 -3 48 -8 75 -11 62 -6 112 -13 145 -20 14 -4
43 -8 65 -11 22 -3 57 -9 77 -15 20 -5 40 -9 45 -8 4 1 11 0 16 -1 17 -6 24
-7 75 -15 28 -4 52 -11 52 -15 0 -5 8 -7 17 -6 16 3 87 -15 287 -69 76 -20
272 -83 311 -100 17 -7 57 -23 90 -35 33 -13 64 -27 69 -32 6 -4 16 -8 22 -8
14 0 248 -113 334 -161 30 -17 106 -65 169 -107 62 -43 122 -82 132 -88 10 -6
16 -14 12 -17 -3 -4 -1 -7 5 -7 24 0 225 -191 292 -278 25 -31 48 -58 52 -60
4 -2 8 -10 8 -18 0 -8 7 -17 15 -20 8 -4 15 -10 15 -15 0 -5 17 -37 38 -71 44
-73 92 -173 92 -191 0 -7 4 -17 9 -23 6 -5 11 -20 13 -34 2 -14 6 -29 10 -35
5 -9 11 -32 23 -95 3 -14 8 -36 11 -50 10 -45 13 -274 4 -320 -5 -25 -11 -64
-14 -85 -16 -127 -103 -344 -203 -510 -43 -71 -143 -209 -155 -213 -4 -2 -8
-8 -8 -12 0 -20 -252 -280 -359 -370 -29 -25 -58 -50 -64 -55 -7 -6 -32 -26
-57 -45 -25 -19 -47 -37 -50 -41 -3 -3 -54 -40 -115 -82 -60 -42 -114 -80
-120 -85 -28 -21 -177 -112 -184 -112 -5 0 -11 -3 -13 -7 -3 -8 -39 -30 -98
-60 -19 -10 -37 -20 -40 -23 -3 -3 -22 -14 -43 -24 l-37 -19 -33 38 c-106 126
-547 568 -547 549 0 -2 -12 9 -27 24 -40 41 -163 146 -278 237 -55 44 -102 83
-105 86 -3 3 -54 43 -115 88 -60 45 -117 88 -126 96 -18 14 -153 108 -198 137
-14 10 -33 22 -41 28 -8 6 -42 28 -75 50 -33 22 -65 43 -70 47 -6 5 -22 15
-36 23 -51 30 -285 173 -309 189 -14 9 -38 23 -55 31 -16 8 -35 20 -41 25 -7
7 -10 114 -10 322 1 269 -1 312 -14 315 -8 2 -80 4 -160 3 l-145 0 -2 -155
c-1 -85 -2 -190 -2 -233 l-1 -77 -107 56 c-60 30 -110 56 -113 56 -6 2 -80 35
-180 80 -85 39 -405 168 -420 170 -3 0 -27 9 -55 20 -27 11 -90 33 -140 50
-49 16 -97 32 -105 36 -18 7 -16 6 -70 21 -25 7 -63 19 -86 27 -22 7 -49 15
-60 17 -10 2 -26 7 -34 10 -8 3 -24 7 -35 10 -11 2 -65 17 -120 31 -55 15
-111 29 -125 31 -14 2 -32 6 -40 9 -14 5 -29 8 -97 21 -16 3 -48 9 -73 15 -25
5 -63 12 -85 16 -22 4 -47 9 -55 10 -15 3 -75 11 -135 19 -16 2 -50 7 -75 10
-168 24 -285 30 -540 30 -209 -1 -395 -8 -395 -15 0 -1 -11 -3 -25 -4 -114
-12 -324 -54 -400 -80 -24 -8 -47 -13 -52 -10 -4 3 -8 0 -8 -6 0 -6 -5 -8 -10
-5 -6 4 -16 2 -23 -3 -7 -5 -28 -14 -47 -21 -34 -11 -35 -11 -14 7 76 61 222
168 294 216 47 30 90 59 95 64 16 12 285 172 290 172 3 0 40 20 84 44 44 24
82 41 85 38 3 -3 6 0 6 6 0 7 4 12 10 12 5 0 47 18 92 41 46 22 142 65 213 96
72 30 144 60 160 67 17 7 55 22 85 34 30 11 64 23 75 28 11 4 25 8 30 10 107
35 202 71 207 79 4 6 8 7 8 3 0 -4 12 -3 28 2 99 32 259 82 272 85 58 16 420
106 440 110 14 3 36 7 50 10 14 3 50 11 80 16 77 16 85 17 85 19 0 2 21 6 75
14 39 5 148 24 195 32 17 4 41 7 55 9 14 2 39 5 55 8 84 14 165 25 255 32 30
3 71 7 90 9 120 15 163 18 395 31 72 4 131 8 133 10 5 4 673 -4 727 -9z
m-3390 -1330 c22 -3 67 -7 100 -10 33 -3 76 -8 95 -11 19 -2 59 -7 88 -10 29
-4 63 -8 75 -11 12 -2 38 -7 57 -10 19 -3 64 -11 100 -17 l65 -12 2 -1244 2
-1244 833 -1 833 -1 0 148 0 147 -672 0 -673 0 0 1061 c0 1007 1 1061 18 1054
18 -8 71 -22 112 -31 14 -3 44 -12 68 -20 23 -7 49 -14 57 -14 8 0 15 -5 15
-11 0 -5 4 -8 8 -5 11 7 439 -138 476 -162 6 -3 18 -7 26 -9 13 -2 58 -20 145
-58 94 -42 175 -75 183 -75 5 0 15 -7 22 -15 7 -8 19 -15 26 -15 8 0 97 -41
199 -91 128 -63 185 -96 185 -107 1 -9 1 -416 1 -904 0 -489 4 -888 7 -889 57
-6 305 -2 310 6 3 5 7 370 8 810 1 440 2 804 3 808 0 4 13 -1 29 -12 23 -17
83 -54 181 -112 29 -16 386 -254 448 -297 59 -41 187 -135 193 -142 3 -3 30
-23 60 -45 30 -22 60 -44 65 -51 6 -6 40 -34 78 -63 37 -29 67 -57 67 -62 0
-6 4 -8 9 -5 5 4 11 3 13 -1 1 -5 30 -30 63 -58 33 -27 67 -57 76 -65 9 -8 52
-46 95 -85 86 -77 387 -375 473 -470 l54 -59 -44 -20 c-24 -12 -47 -25 -51
-31 -4 -5 -8 -7 -8 -3 0 3 -32 -9 -70 -28 -39 -19 -73 -34 -76 -34 -3 0 -35
-13 -71 -30 -35 -16 -69 -30 -74 -30 -5 0 -17 -4 -27 -9 -15 -9 -49 -22 -62
-25 -3 -1 -48 -18 -100 -38 -126 -48 -133 -51 -145 -54 -5 -1 -63 -21 -127
-43 -65 -22 -118 -38 -118 -36 0 2 -15 -2 -34 -10 -18 -8 -44 -17 -57 -20 -13
-3 -82 -21 -154 -41 -71 -19 -139 -37 -150 -39 -11 -2 -45 -10 -75 -18 -59
-16 -162 -38 -195 -43 -11 -1 -20 -3 -20 -4 0 -2 -9 -4 -20 -6 -11 -1 -31 -5
-45 -9 -28 -7 -52 -12 -95 -19 -16 -3 -68 -12 -115 -20 -81 -14 -130 -22 -195
-31 -16 -3 -40 -7 -52 -9 -19 -4 -66 -10 -168 -21 -16 -2 -50 -6 -75 -9 -44
-6 -64 -8 -205 -21 -38 -3 -90 -8 -115 -11 -280 -28 -925 -23 -1255 12 -33 3
-81 7 -106 9 -25 2 -57 6 -71 9 -28 5 -126 18 -168 22 -14 1 -25 3 -25 4 0 2
-9 4 -20 5 -57 7 -122 19 -230 40 -66 13 -131 26 -145 29 -40 7 -248 63 -340
91 -47 14 -92 27 -100 29 -8 2 -39 13 -67 25 -29 11 -53 18 -53 16 0 -3 -11 2
-24 11 -14 8 -29 16 -33 16 -43 3 -375 155 -498 228 -27 16 -65 37 -82 47 -18
9 -33 21 -33 25 0 5 -3 7 -7 5 -5 -3 -14 2 -22 10 -12 13 -11 14 10 8 132 -43
238 -57 414 -58 208 -1 344 22 530 90 118 44 312 148 323 175 2 5 10 8 18 8 8
0 14 5 14 10 0 6 7 10 16 10 8 0 12 5 9 10 -3 6 -1 10 5 10 16 0 139 124 198
200 70 91 172 277 172 314 0 7 4 16 9 22 15 14 49 156 62 252 35 266 -3 513
-113 732 -55 111 -177 276 -242 330 -10 8 -40 34 -65 57 -25 24 -51 43 -58 43
-6 0 -13 3 -15 8 -12 27 -250 154 -343 181 -22 7 -47 15 -55 18 -20 8 -19 8
-140 33 -64 13 -155 24 -232 26 -70 2 -135 4 -145 5 -37 2 101 30 212 44 28 4
61 8 75 11 14 2 66 7 115 10 50 4 91 8 93 9 5 4 434 -4 477 -9z m-739 -370
c281 -48 534 -214 688 -450 28 -43 51 -81 52 -85 0 -3 10 -26 21 -51 11 -25
25 -63 32 -85 7 -22 15 -47 18 -55 3 -8 8 -26 10 -40 2 -14 6 -32 9 -40 13
-32 19 -230 10 -305 -6 -44 -22 -127 -26 -132 -2 -2 -3 -6 -4 -10 -20 -74 -93
-237 -115 -253 -3 -3 -15 -18 -26 -35 -10 -16 -37 -50 -59 -74 -202 -219 -471
-332 -771 -325 -105 2 -132 5 -200 20 -16 3 -34 7 -40 8 -91 19 -312 125 -367
176 -11 10 -41 35 -66 56 -44 35 -142 145 -142 158 0 4 -9 17 -20 29 -25 27
-120 217 -120 241 0 10 -4 26 -10 36 -5 10 -12 36 -16 57 -3 21 -9 54 -13 73
-4 19 -7 94 -5 165 2 114 5 143 18 190 2 6 6 28 11 50 4 22 25 77 46 123 21
45 38 85 38 89 -1 3 3 9 8 12 4 3 25 31 46 62 94 140 266 271 452 344 55 22
198 56 213 50 6 -2 12 -1 12 4 0 9 262 6 316 -3z m-1010 -2077 c213 -199 538
-397 894 -544 68 -28 313 -115 340 -120 8 -2 27 -8 42 -14 27 -10 271 -76 318
-85 14 -3 57 -12 95 -21 39 -8 84 -18 100 -21 17 -2 37 -7 46 -10 15 -4 40 -8
119 -19 14 -2 36 -6 50 -9 23 -6 48 -9 140 -21 106 -13 124 -15 149 -19 14 -3
62 -7 106 -11 44 -4 98 -9 120 -11 234 -25 997 -25 1200 0 17 2 69 7 117 11
49 3 96 8 106 10 10 1 48 6 84 9 37 4 77 9 90 11 13 3 46 7 73 9 28 3 62 7 75
10 14 3 45 8 70 11 25 2 55 7 66 9 35 7 97 17 129 21 17 2 64 11 105 20 41 9
90 18 109 21 42 7 46 8 161 34 52 12 106 24 119 26 14 3 28 7 31 9 4 2 20 7
36 9 16 3 79 20 139 36 61 17 117 33 125 35 8 2 30 8 48 14 17 5 32 7 32 5 0
-3 6 -2 12 3 7 4 15 8 18 8 3 0 19 5 35 12 50 19 149 48 158 45 4 -1 7 3 7 10
0 6 2 9 5 6 5 -5 110 29 188 61 16 6 34 11 41 11 7 0 16 3 20 8 4 4 11 7 14 7
14 1 127 47 138 56 6 5 19 10 30 12 10 2 30 9 44 15 37 15 113 49 168 74 26
12 49 22 52 23 3 0 43 20 90 43 l85 41 28 -32 c15 -18 47 -57 70 -87 23 -30
44 -57 47 -60 17 -16 96 -128 167 -235 26 -38 50 -71 55 -73 4 -2 8 -8 8 -12
0 -5 13 -29 30 -53 16 -25 30 -50 30 -56 0 -6 3 -11 8 -11 10 0 42 -58 42 -76
0 -8 4 -14 9 -14 5 0 51 -84 101 -187 111 -226 105 -215 129 -283 10 -30 26
-72 35 -92 9 -21 14 -38 11 -38 -3 0 1 -13 10 -30 9 -16 13 -30 10 -30 -4 0
-3 -6 2 -12 4 -7 8 -17 9 -23 2 -10 23 -92 28 -110 42 -149 64 -449 43 -600
-4 -27 -9 -63 -11 -80 -8 -61 -40 -179 -65 -240 -17 -42 -76 -160 -81 -165 -4
-3 -10 -12 -13 -20 -32 -69 -166 -221 -267 -302 l-34 -28 -18 27 c-9 15 -34
60 -53 99 l-36 72 -42 -28 c-84 -56 -297 -160 -297 -144 0 2 -12 -2 -27 -9
-32 -16 -190 -55 -261 -64 -65 -8 -238 -8 -287 0 -53 8 -146 27 -165 33 -8 3
-15 5 -15 4 0 -4 -148 63 -190 86 -240 133 -426 380 -486 644 -33 146 -32 334
3 465 6 22 11 45 13 50 12 51 90 204 135 265 85 115 195 210 323 279 31 17 57
27 57 23 0 -4 4 -2 8 4 9 13 107 49 187 68 78 18 68 17 230 19 160 2 230 -5
335 -33 77 -21 88 -25 155 -55 22 -10 42 -19 45 -19 3 -1 26 -13 52 -29 26
-15 51 -27 56 -27 6 0 12 -3 14 -8 5 -11 85 -72 94 -72 5 1 43 57 86 125 l76
125 -36 28 c-38 29 -170 112 -178 112 -2 0 -26 9 -52 21 -26 12 -56 24 -67 29
-11 4 -31 12 -45 18 -104 43 -361 86 -495 83 -81 -1 -220 -14 -270 -24 -11 -2
-38 -7 -60 -11 -22 -4 -87 -23 -145 -42 -380 -128 -649 -376 -804 -744 -17
-42 -55 -172 -61 -215 -3 -16 -9 -57 -14 -90 -9 -62 -7 -310 3 -356 3 -14 8
-39 10 -55 2 -16 6 -36 8 -44 3 -8 15 -49 28 -90 22 -73 116 -272 132 -278 4
-2 8 -10 8 -17 0 -7 3 -15 8 -17 4 -1 27 -29 51 -61 57 -74 188 -197 265 -247
34 -22 66 -43 71 -47 108 -78 395 -175 552 -186 52 -4 47 -13 -10 -17 -205
-13 -598 5 -782 36 -16 3 -41 7 -55 9 -73 9 -117 16 -130 20 -8 2 -35 7 -60
10 -24 4 -47 8 -50 10 -3 2 -22 6 -43 9 -78 12 -167 39 -168 50 0 6 -1 58 -2
116 -2 76 -5 105 -14 106 -7 1 -19 2 -25 3 -10 1 -13 217 -12 1046 0 734 -3
1045 -10 1046 -6 0 -71 1 -144 2 l-132 2 -1 -40 c0 -22 0 -457 -1 -967 0 -511
-4 -928 -8 -928 -5 0 -10 4 -12 9 -1 6 -18 27 -35 48 -18 21 -47 56 -65 79
-70 86 -103 127 -113 138 -6 6 -98 119 -205 251 -107 132 -197 242 -200 245
-3 3 -35 41 -70 85 -35 44 -67 82 -70 85 -3 3 -21 25 -40 50 -19 25 -37 47
-40 50 -3 3 -46 55 -95 115 -313 385 -400 490 -407 493 -4 2 -8 8 -8 14 0 5
-6 15 -12 22 -7 8 -24 26 -37 42 -13 16 -36 43 -50 59 -32 38 -91 112 -107
133 -9 12 -38 15 -152 16 l-142 1 0 -45 c-1 -25 -1 -336 -1 -691 0 -629 -1
-647 -19 -642 -11 3 -32 18 -48 33 -26 25 -29 32 -23 71 8 50 6 189 -3 264
-42 345 -232 662 -521 870 -97 69 -176 112 -162 88 3 -5 2 -16 -2 -25 -6 -16
-8 -16 -36 -2 -82 44 -263 107 -344 120 -18 3 -43 8 -55 10 -21 5 -96 12 -168
18 -21 1 -41 5 -44 9 -4 3 -11 4 -15 1 -5 -3 -55 -7 -111 -9 -57 -2 -119 -7
-140 -10 -38 -5 -44 0 -173 156 -25 31 -144 187 -170 224 -11 15 -35 47 -52
71 -18 24 -33 46 -33 48 0 3 -25 42 -56 88 -30 46 -72 112 -92 148 -20 36 -38
67 -41 70 -4 3 -22 37 -41 75 -19 39 -37 72 -40 75 -3 3 -11 19 -18 35 -14 30
-13 30 6 10 11 -11 41 -41 68 -66z m1014 -1224 c25 -3 52 -9 60 -11 8 -3 26
-8 39 -10 47 -9 197 -75 248 -109 29 -19 55 -35 59 -35 3 0 11 -6 19 -12 7 -7
30 -27 52 -45 32 -26 39 -37 36 -60 -3 -20 5 -37 27 -63 73 -81 80 -90 80 -97
0 -3 6 -14 14 -22 24 -27 85 -147 105 -208 30 -92 34 -116 19 -107 -22 12
-103 78 -106 86 -2 5 -8 8 -14 8 -5 0 -33 19 -62 43 -29 23 -68 53 -86 67 -18
14 -38 30 -44 35 -6 6 -56 48 -111 94 -55 47 -116 99 -135 117 -130 119 -183
169 -261 246 -49 48 -89 90 -89 93 0 6 60 2 150 -10z m-207 -177 c95 -95 206
-202 246 -238 40 -36 80 -72 89 -81 10 -8 60 -51 112 -95 52 -43 97 -81 100
-84 3 -3 25 -21 50 -40 25 -19 50 -39 56 -45 6 -5 24 -20 40 -33 179 -138 224
-171 224 -164 0 4 4 2 8 -4 4 -5 24 -23 44 -38 21 -16 36 -32 33 -36 -3 -4 -7
-33 -10 -64 -11 -131 -81 -309 -165 -421 -38 -51 -186 -187 -230 -212 -28 -15
-50 -31 -50 -35 0 -5 -8 -8 -19 -8 -10 0 -24 -6 -30 -14 -7 -8 -26 -18 -42
-21 -28 -6 -29 -8 -15 -24 9 -10 16 -20 16 -23 0 -7 -84 -39 -109 -41 -12 -1
-21 -4 -21 -8 0 -6 -24 -10 -135 -26 -61 -9 -211 -10 -227 -1 -10 5 -19 4 -23
-2 -4 -6 -13 -7 -23 -1 -9 5 -35 11 -57 14 -22 3 -58 11 -80 18 -22 7 -42 13
-45 14 -43 10 -203 84 -208 97 -2 4 -9 8 -14 8 -16 0 -114 75 -176 134 -57 55
-133 153 -175 226 -30 53 -84 184 -91 222 -2 15 -7 31 -9 35 -11 18 -21 125
-21 228 0 115 6 178 23 233 5 18 10 36 10 40 7 64 112 261 180 335 99 108 245
219 325 248 20 7 36 16 36 19 0 4 6 7 13 8 6 1 48 12 92 26 44 14 86 25 92 25
7 1 91 -77 186 -171z m1887 -192 c8 -10 31 -38 50 -61 19 -23 49 -59 65 -79
17 -21 35 -43 40 -50 6 -6 26 -31 46 -56 20 -25 46 -56 58 -70 11 -14 24 -29
28 -35 28 -34 179 -221 183 -225 5 -5 87 -105 103 -125 4 -5 17 -21 28 -35 12
-14 38 -45 58 -70 20 -25 41 -50 46 -56 6 -7 19 -24 29 -38 11 -15 29 -37 40
-49 12 -13 35 -40 51 -61 17 -21 37 -46 45 -56 8 -9 26 -32 40 -50 13 -17 33
-42 45 -54 11 -12 36 -42 55 -66 33 -41 48 -59 129 -160 19 -23 41 -48 48 -56
21 -21 15 -35 -12 -30 l-26 5 22 -36 c13 -20 18 -34 12 -30 -12 7 -63 29 -78
33 -5 1 -23 8 -40 15 -16 6 -34 13 -40 15 -23 6 -300 120 -415 172 -139 62
-472 228 -594 296 -44 24 -83 52 -86 63 -5 14 -6 992 -1 1026 1 8 25 -18 71
-77z"/>
<path d="M2150 5162 c0 -4 -30 -7 -68 -8 -100 -1 -196 -15 -327 -48 -88 -22
-352 -139 -375 -165 -3 -4 -23 -18 -45 -32 -87 -56 -217 -183 -293 -284 -74
-99 -175 -307 -198 -410 -5 -20 -9 -39 -19 -85 -15 -68 -20 -127 -20 -260 0
-145 6 -216 24 -277 5 -18 7 -33 4 -33 -3 0 0 -7 7 -15 7 -8 9 -15 5 -15 -4 0
-2 -7 5 -15 7 -8 10 -15 7 -15 -9 0 20 -77 60 -160 38 -78 115 -198 152 -237
12 -13 20 -23 17 -23 -7 0 135 -136 169 -162 17 -12 32 -25 35 -28 4 -4 21
-15 105 -68 78 -49 320 -148 380 -156 11 -2 29 -6 40 -9 117 -35 450 -41 599
-11 12 2 32 6 46 9 69 13 179 46 235 69 22 9 41 17 43 16 10 -3 161 75 217
113 119 80 114 58 44 193 -34 66 -63 120 -64 122 -1 2 -9 -3 -16 -10 -32 -32
-239 -143 -283 -153 -6 -1 -18 -5 -26 -8 -31 -12 -154 -47 -184 -52 -17 -3
-38 -8 -46 -10 -59 -16 -302 -28 -325 -16 -5 3 -21 5 -35 6 -47 3 -160 27
-166 36 -3 5 -14 9 -24 9 -24 0 -171 69 -223 104 -21 14 -40 26 -42 26 -9 0
-62 47 -135 120 -110 110 -191 241 -239 386 -35 105 -44 163 -45 299 -2 182
18 278 89 421 114 232 283 383 543 483 28 12 52 18 52 15 0 -4 6 -2 13 4 11 9
68 23 107 27 9 0 20 4 25 7 10 6 325 2 360 -5 11 -2 34 -7 50 -10 17 -4 41 -9
54 -12 13 -2 47 -12 75 -22 28 -9 53 -17 56 -18 14 -1 185 -89 188 -97 2 -4
10 -8 17 -8 7 0 15 -3 17 -7 6 -15 78 -64 86 -59 4 2 29 40 56 83 27 43 62 98
78 122 l28 45 -82 54 c-156 102 -363 185 -518 207 -19 3 -45 7 -58 9 -12 3
-59 7 -105 10 -45 4 -92 8 -104 10 -13 3 -23 2 -23 -2z"/>
</g>
</svg>
