<?xml version="1.0" encoding="UTF-8" standalone="no"?>
<!-- Created with Inkscape (http://www.inkscape.org/) -->

<svg
   xmlns:dc="http://purl.org/dc/elements/1.1/"
   xmlns:cc="http://creativecommons.org/ns#"
   xmlns:rdf="http://www.w3.org/1999/02/22-rdf-syntax-ns#"
   xmlns:svg="http://www.w3.org/2000/svg"
   xmlns="http://www.w3.org/2000/svg"
   xmlns:sodipodi="http://sodipodi.sourceforge.net/DTD/sodipodi-0.dtd"
   xmlns:inkscape="http://www.inkscape.org/namespaces/inkscape"
   width="112.88889mm"
   height="112.88889mm"
   viewBox="0 0 400 400.00001"
   id="svg2"
   version="1.1"
   inkscape:version="0.91 r13725"
   inkscape:export-filename="/media/Share/coli-conc/coli-conc-logo.png"
   inkscape:export-xdpi="90"
   inkscape:export-ydpi="90"
   sodipodi:docname="coli-conc-logo.svg">
  <defs
     id="defs4" />
  <sodipodi:namedview
     id="base"
     pagecolor="#ffffff"
     bordercolor="#666666"
     borderopacity="1.0"
     inkscape:pageopacity="0.0"
     inkscape:pageshadow="2"
     inkscape:zoom="1.4"
     inkscape:cx="76.460081"
     inkscape:cy="272.66131"
     inkscape:document-units="px"
     inkscape:current-layer="text4138"
     showgrid="false"
     units="mm"
     inkscape:snap-text-baseline="false"
     inkscape:window-width="1318"
     inkscape:window-height="1148"
     inkscape:window-x="0"
     inkscape:window-y="24"
     inkscape:window-maximized="0" />
  <metadata
     id="metadata7">
    <rdf:RDF>
      <cc:Work
         rdf:about="">
        <dc:format>image/svg+xml</dc:format>
        <dc:type
           rdf:resource="http://purl.org/dc/dcmitype/StillImage" />
        <dc:title></dc:title>
      </cc:Work>
    </rdf:RDF>
  </metadata>
  <g
     inkscape:label="Ebene 1"
     inkscape:groupmode="layer"
     id="layer1"
     transform="translate(0,-652.36216)">
    <rect
       style="opacity:1;fill:#5480bb;fill-opacity:1;fill-rule:evenodd;stroke:none;stroke-width:16;stroke-linecap:butt;stroke-linejoin:miter;stroke-miterlimit:4;stroke-dasharray:none;stroke-opacity:1"
       id="rect3336"
       width="400"
       height="400"
       x="0"
       y="652.36218"
       ry="16" />
    <g
       style="font-style:normal;font-weight:normal;font-size:40px;line-height:100%;font-family:sans-serif;letter-spacing:0px;word-spacing:0px;fill:#ffffff;fill-opacity:1;stroke:none;stroke-width:1px;stroke-linecap:butt;stroke-linejoin:miter;stroke-opacity:1"
       id="text4138">
      <path
         d="m 146.44531,812.08875 q 0,2.03125 -0.15625,3.4375 -0.0781,1.32812 -0.3125,2.26562 -0.15625,0.9375 -0.46875,1.5625 -0.23437,0.54688 -1.17187,1.48438 -0.9375,0.85937 -3.20313,2.1875 -2.26562,1.25 -5.15625,2.26562 -2.89062,1.01563 -6.32812,1.64063 -3.35938,0.625 -6.95313,0.625 -8.04687,0 -14.29687,-2.5 -6.17188,-2.5 -10.390628,-7.34375 -4.21875,-4.92188 -6.40625,-11.95313 -2.109375,-7.03125 -2.109375,-16.09375 0,-10.46875 2.578125,-18.04687 2.65625,-7.65625 7.34375,-12.65625 4.687498,-5 11.093748,-7.42188 6.40625,-2.42187 14.0625,-2.42187 3.125,0 6.09375,0.54687 3.04688,0.54688 5.625,1.48438 2.65625,0.9375 4.6875,2.10937 2.10938,1.17188 2.96875,2.03125 0.85938,0.85938 1.17188,1.48438 0.39062,0.54687 0.54687,1.48437 0.23438,0.9375 0.3125,2.34375 0.15625,1.32813 0.15625,3.28125 0,4.53125 -0.78125,6.40625 -0.78125,1.79688 -2.03125,1.79688 -1.32812,0 -2.8125,-1.09375 -1.48437,-1.09375 -3.51562,-2.42188 -2.03125,-1.32812 -4.84375,-2.42187 -2.8125,-1.09375 -6.71875,-1.09375 -7.65625,0 -11.71875,5.9375 -4.0625,5.85937 -4.0625,17.26562 0,5.625 1.01562,9.92188 1.01563,4.29687 2.96875,7.1875 2.03125,2.89062 5,4.375 3.04688,1.40625 7.03125,1.40625 4.0625,0 6.95313,-1.17188 2.96875,-1.25 5.15625,-2.73437 2.1875,-1.48438 3.67187,-2.65625 1.48438,-1.25 2.5,-1.25 0.70313,0 1.17188,0.39062 0.46875,0.39063 0.70312,1.48438 0.3125,1.01562 0.46875,2.65625 0.15625,1.64062 0.15625,4.21875 z"
         style="font-style:normal;font-variant:normal;font-weight:bold;font-stretch:normal;font-size:160px;line-height:100%;font-family:Calibri;-inkscape-font-specification:'Calibri, Bold';text-align:center;writing-mode:lr-tb;text-anchor:middle"
         id="path4175" />
      <path
         d="m 230.42969,787.63562 q 0,8.90625 -2.34375,16.25 -2.34375,7.34375 -7.10938,12.65625 -4.76562,5.3125 -11.95312,8.20313 -7.1875,2.89062 -16.79688,2.89062 -9.29687,0 -16.17187,-2.57812 -6.875,-2.57813 -11.40625,-7.5 -4.53125,-4.92188 -6.71875,-12.10938 -2.1875,-7.1875 -2.1875,-16.40625 0,-8.90625 2.34375,-16.25 2.42187,-7.42187 7.1875,-12.65625 4.76562,-5.3125 11.875,-8.20312 7.1875,-2.89063 16.79687,-2.89063 9.375,0 16.25,2.57813 6.875,2.5 11.32813,7.42187 4.53125,4.92188 6.71875,12.10938 2.1875,7.1875 2.1875,16.48437 z m -20.23438,0.78125 q 0,-5.15625 -0.85937,-9.45312 -0.78125,-4.375 -2.73438,-7.57813 -1.95312,-3.20312 -5.23437,-5 -3.20313,-1.79687 -8.125,-1.79687 -4.375,0 -7.65625,1.64062 -3.28125,1.5625 -5.39063,4.6875 -2.10937,3.04688 -3.20312,7.42188 -1.01563,4.29687 -1.01563,9.84375 0,5.15625 0.85938,9.53125 0.85937,4.29687 2.73437,7.5 1.95313,3.20312 5.23438,5 3.28125,1.71875 8.125,1.71875 4.45312,0 7.73437,-1.5625 3.28125,-1.64063 5.39063,-4.6875 2.10937,-3.04688 3.125,-7.34375 1.01562,-4.375 1.01562,-9.92188 z"
         style="font-style:normal;font-variant:normal;font-weight:bold;font-stretch:normal;font-size:160px;line-height:100%;font-family:Calibri;-inkscape-font-specification:'Calibri, Bold';text-align:center;writing-mode:lr-tb;text-anchor:middle"
         id="path4177" />
      <path
         d="m 265.58594,823.1825 q 0,0.78125 -0.46875,1.40625 -0.46875,0.54687 -1.64063,0.9375 -1.09375,0.39062 -2.96875,0.54687 -1.875,0.23438 -4.76562,0.23438 -2.89063,0 -4.76563,-0.23438 -1.875,-0.15625 -3.04687,-0.54687 -1.09375,-0.39063 -1.5625,-0.9375 -0.46875,-0.625 -0.46875,-1.40625 l 0,-102.73438 q 0,-0.78125 0.46875,-1.40625 0.46875,-0.625 1.5625,-1.01562 1.17187,-0.46875 3.04687,-0.70313 1.875,-0.23437 4.76563,-0.23437 2.89062,0 4.76562,0.23437 1.875,0.23438 2.96875,0.70313 1.17188,0.39062 1.64063,1.01562 0.46875,0.625 0.46875,1.40625 l 0,102.73438 z"
         style="font-style:normal;font-variant:normal;font-weight:bold;font-stretch:normal;font-size:160px;line-height:100%;font-family:Calibri;-inkscape-font-specification:'Calibri, Bold';text-align:center;writing-mode:lr-tb;text-anchor:middle"
         id="path4179" />
      <path
         d="m 304.96094,823.1825 q 0,0.78125 -0.46875,1.40625 -0.46875,0.54687 -1.64063,0.9375 -1.09375,0.39062 -2.96875,0.54687 -1.875,0.23438 -4.76562,0.23438 -2.89063,0 -4.76563,-0.23438 -1.875,-0.15625 -3.04687,-0.54687 -1.09375,-0.39063 -1.5625,-0.9375 -0.46875,-0.625 -0.46875,-1.40625 l 0,-69.53125 q 0,-0.78125 0.46875,-1.32813 0.46875,-0.625 1.5625,-1.01562 1.17187,-0.46875 3.04687,-0.70313 1.875,-0.23437 4.76563,-0.23437 2.89062,0 4.76562,0.23437 1.875,0.23438 2.96875,0.70313 1.17188,0.39062 1.64063,1.01562 0.46875,0.54688 0.46875,1.32813 l 0,69.53125 z m 1.48437,-93.28125 q 0,5.9375 -2.42187,8.20312 -2.42188,2.26563 -8.98438,2.26563 -6.64062,0 -8.98437,-2.1875 -2.26563,-2.1875 -2.26563,-7.89063 0,-5.9375 2.34375,-8.20312 2.42188,-2.34375 9.0625,-2.34375 6.5625,0 8.90625,2.26562 2.34375,2.1875 2.34375,7.89063 z"
         style="font-style:normal;font-variant:normal;font-weight:bold;font-stretch:normal;font-size:160px;line-height:100%;font-family:Calibri;-inkscape-font-specification:'Calibri, Bold';text-align:center;writing-mode:lr-tb;text-anchor:middle"
         id="path4181" />
      <path
         d="m 109.41406,972.08875 q 0,2.03125 -0.15625,3.4375 -0.0781,1.32812 -0.3125,2.26562 -0.15625,0.9375 -0.46875,1.5625 -0.23437,0.54688 -1.17187,1.48438 -0.9375,0.85937 -3.20313,2.1875 -2.26562,1.25 -5.156248,2.26562 -2.890625,1.01563 -6.328125,1.64063 -3.359375,0.625 -6.953125,0.625 -8.046875,0 -14.296875,-2.5 -6.171875,-2.5 -10.390625,-7.34375 -4.21875,-4.92188 -6.40625,-11.95313 -2.109375,-7.03125 -2.109375,-16.09375 0,-10.46875 2.578125,-18.04687 2.65625,-7.65625 7.34375,-12.65625 4.6875,-5 11.09375,-7.42188 6.40625,-2.42187 14.0625,-2.42187 3.125,0 6.09375,0.54687 3.046875,0.54688 5.625,1.48438 2.656248,0.9375 4.687498,2.10937 2.10938,1.17188 2.96875,2.03125 0.85938,0.85938 1.17188,1.48438 0.39062,0.54687 0.54687,1.48437 0.23438,0.9375 0.3125,2.34375 0.15625,1.32813 0.15625,3.28125 0,4.53125 -0.78125,6.40625 -0.78125,1.79688 -2.03125,1.79688 -1.32812,0 -2.8125,-1.09375 -1.48437,-1.09375 -3.515623,-2.42188 -2.03125,-1.32812 -4.84375,-2.42187 -2.8125,-1.09375 -6.71875,-1.09375 -7.65625,0 -11.71875,5.9375 -4.0625,5.85937 -4.0625,17.26562 0,5.625 1.015625,9.92188 1.015625,4.29687 2.96875,7.1875 2.03125,2.89062 5,4.375 3.046875,1.40625 7.03125,1.40625 4.0625,0 6.953125,-1.17188 2.96875,-1.25 5.156253,-2.73437 2.1875,-1.48438 3.67187,-2.65625 1.48438,-1.25 2.5,-1.25 0.70313,0 1.17188,0.39062 0.46875,0.39063 0.70312,1.48438 0.3125,1.01562 0.46875,2.65625 0.15625,1.64062 0.15625,4.21875 z"
         style="font-style:normal;font-variant:normal;font-weight:bold;font-stretch:normal;font-size:160px;line-height:100%;font-family:Calibri;-inkscape-font-specification:'Calibri, Bold';text-align:center;writing-mode:lr-tb;text-anchor:middle"
         id="path4183" />
      <path
         d="m 193.39844,947.63562 q 0,8.90625 -2.34375,16.25 -2.34375,7.34375 -7.10938,12.65625 -4.76562,5.3125 -11.95312,8.20313 -7.1875,2.89062 -16.79688,2.89062 -9.29687,0 -16.17187,-2.57812 -6.875,-2.57813 -11.40625,-7.5 -4.53125,-4.92188 -6.71875,-12.10938 -2.1875,-7.1875 -2.1875,-16.40625 0,-8.90625 2.34375,-16.25 2.42187,-7.42187 7.1875,-12.65625 4.76562,-5.3125 11.875,-8.20312 7.1875,-2.89063 16.79687,-2.89063 9.375,0 16.25,2.57813 6.875,2.5 11.32813,7.42187 4.53125,4.92188 6.71875,12.10938 2.1875,7.1875 2.1875,16.48437 z m -20.23438,0.78125 q 0,-5.15625 -0.85937,-9.45312 -0.78125,-4.375 -2.73438,-7.57813 -1.95312,-3.20312 -5.23437,-5 -3.20313,-1.79687 -8.125,-1.79687 -4.375,0 -7.65625,1.64062 -3.28125,1.5625 -5.39063,4.6875 -2.10937,3.04688 -3.20312,7.42188 -1.01563,4.29687 -1.01563,9.84375 0,5.15625 0.85938,9.53125 0.85937,4.29687 2.73437,7.5 1.95313,3.20312 5.23438,5 3.28125,1.71875 8.125,1.71875 4.45312,0 7.73437,-1.5625 3.28125,-1.64063 5.39063,-4.6875 2.10937,-3.04688 3.125,-7.34375 1.01562,-4.375 1.01562,-9.92188 z"
         style="font-style:normal;font-variant:normal;font-weight:bold;font-stretch:normal;font-size:160px;line-height:100%;font-family:Calibri;-inkscape-font-specification:'Calibri, Bold';text-align:center;writing-mode:lr-tb;text-anchor:middle"
         id="path4185" />
      <path
         d="m 275.42969,983.1825 q 0,0.78125 -0.46875,1.40625 -0.46875,0.54687 -1.5625,0.9375 -1.09375,0.39062 -3.04688,0.54687 -1.875,0.23438 -4.6875,0.23438 -2.89062,0 -4.84375,-0.23438 -1.875,-0.15625 -2.96875,-0.54687 -1.09375,-0.39063 -1.5625,-0.9375 -0.46875,-0.625 -0.46875,-1.40625 l 0,-39.76563 q 0,-5.07812 -0.78125,-7.96875 -0.70312,-2.89062 -2.10937,-4.92187 -1.40625,-2.10938 -3.67188,-3.20313 -2.1875,-1.17187 -5.15625,-1.17187 -3.75,0 -7.57812,2.73437 -3.82813,2.73438 -7.96875,7.96875 l 0,46.32813 q 0,0.78125 -0.46875,1.40625 -0.46875,0.54687 -1.64063,0.9375 -1.09375,0.39062 -2.96875,0.54687 -1.875,0.23438 -4.76562,0.23438 -2.89063,0 -4.76563,-0.23438 -1.875,-0.15625 -3.04687,-0.54687 -1.09375,-0.39063 -1.5625,-0.9375 -0.46875,-0.625 -0.46875,-1.40625 l 0,-69.6875 q 0,-0.78125 0.39062,-1.32813 0.39063,-0.625 1.40625,-1.01562 1.01563,-0.39063 2.57813,-0.54688 1.64062,-0.23437 4.0625,-0.23437 2.5,0 4.14062,0.23437 1.64063,0.15625 2.5,0.54688 0.9375,0.39062 1.32813,1.01562 0.39062,0.54688 0.39062,1.32813 l 0,8.04687 q 5.78125,-6.25 11.71875,-9.375 6.01563,-3.125 12.5,-3.125 7.10938,0 11.95313,2.34375 4.92187,2.34375 7.89062,6.40625 3.04688,3.98438 4.375,9.375 1.32813,5.39063 1.32813,12.96875 l 0,43.04688 z"
         style="font-style:normal;font-variant:normal;font-weight:bold;font-stretch:normal;font-size:160px;line-height:100%;font-family:Calibri;-inkscape-font-specification:'Calibri, Bold';text-align:center;writing-mode:lr-tb;text-anchor:middle"
         id="path4187" />
      <path
         d="m 347.53906,972.08875 q 0,2.03125 -0.15625,3.4375 -0.0781,1.32812 -0.3125,2.26562 -0.15625,0.9375 -0.46875,1.5625 -0.23437,0.54688 -1.17187,1.48438 -0.9375,0.85937 -3.20313,2.1875 -2.26562,1.25 -5.15625,2.26562 -2.89062,1.01563 -6.32812,1.64063 -3.35938,0.625 -6.95313,0.625 -8.04687,0 -14.29687,-2.5 -6.17188,-2.5 -10.39063,-7.34375 -4.21875,-4.92188 -6.40625,-11.95313 -2.10937,-7.03125 -2.10937,-16.09375 0,-10.46875 2.57812,-18.04687 2.65625,-7.65625 7.34375,-12.65625 4.6875,-5 11.09375,-7.42188 6.40625,-2.42187 14.0625,-2.42187 3.125,0 6.09375,0.54687 3.04688,0.54688 5.625,1.48438 2.65625,0.9375 4.6875,2.10937 2.10938,1.17188 2.96875,2.03125 0.85938,0.85938 1.17188,1.48438 0.39062,0.54687 0.54687,1.48437 0.23438,0.9375 0.3125,2.34375 0.15625,1.32813 0.15625,3.28125 0,4.53125 -0.78125,6.40625 -0.78125,1.79688 -2.03125,1.79688 -1.32812,0 -2.8125,-1.09375 -1.48437,-1.09375 -3.51562,-2.42188 -2.03125,-1.32812 -4.84375,-2.42187 -2.8125,-1.09375 -6.71875,-1.09375 -7.65625,0 -11.71875,5.9375 -4.0625,5.85937 -4.0625,17.26562 0,5.625 1.01562,9.92188 1.01563,4.29687 2.96875,7.1875 2.03125,2.89062 5,4.375 3.04688,1.40625 7.03125,1.40625 4.0625,0 6.95313,-1.17188 2.96875,-1.25 5.15625,-2.73437 2.1875,-1.48438 3.67187,-2.65625 1.48438,-1.25 2.5,-1.25 0.70313,0 1.17188,0.39062 0.46875,0.39063 0.70312,1.48438 0.3125,1.01562 0.46875,2.65625 0.15625,1.64062 0.15625,4.21875 z"
         style="font-style:normal;font-variant:normal;font-weight:bold;font-stretch:normal;font-size:160px;line-height:100%;font-family:Calibri;-inkscape-font-specification:'Calibri, Bold';text-align:center;writing-mode:lr-tb;text-anchor:middle"
         id="path4189" />
    </g>
  </g>
</svg>
