<?xml version="1.0" encoding="utf-8"?>
<!-- Generator: Adobe Illustrator 21.0.0, SVG Export Plug-In . SVG Version: 6.00 Build 0)  -->
<svg version="1.1" id="Ebene_1" xmlns="http://www.w3.org/2000/svg" xmlns:xlink="http://www.w3.org/1999/xlink" x="0px" y="0px"
	 viewBox="0 0 204.5 106.3" style="enable-background:new 0 0 204.5 106.3;" xml:space="preserve">
<style type="text/css">
	.st0{fill:#567FC0;}
	.st1{fill:#688DC1;}
	.st2{fill:#E0E0E0;}
	.st3{fill:#FFFFFF;}
	.st4{fill:#5680BF;}
</style>
<g>
	<rect class="st0" width="204.5" height="106.3"/>
	<path class="st1" d="M132,17.1c-7-1.2-14.6-0.8-21.7-0.5c-3.1,0.2-6.1,0.7-9,1.8c-1.4,0.5-2.9,0.8-4.3,1.2
		c-4.3,1.3-8.7,2.8-12.8,4.8c-0.2,0.1-0.5,0.3-0.7,0.4c-1.4,1-2.9,1.9-4.1,3c-0.9,0.9-2.4,1.5-2.6,2.9c1.1,0.2,2.4-0.4,3.5-0.6
		c1.4-0.3,2.7-0.5,4.1-0.6c4.7-0.5,9.4,0,14,1.1c2.3,0.6,4.6,1.2,6.9,2c2,0.7,4.1,1.1,6.1,2.1c2.5,1.2,4.8,2.9,7.3,4.1
		c3.6,1.8,6.8,3.8,10,6.3c1.7,1.4,3.3,2.9,4.9,4.4c1.2,1.1,2.3,2.2,3.4,3.3c0.9,0.9,1.7,2.1,3.2,1.8c1.2-0.2,2.8-1.3,3.7-2.1
		c0.9-0.8,1.9-1.5,2.9-2.2c0.9-0.6,1.9-1.1,2.7-1.9c1-1.2,2-2.4,2.8-3.7c1.5-2.3,3-5.1,3.1-7.9C155.8,24.2,142.5,18.9,132,17.1z"/>
	<g>
		<path class="st2" d="M47.8,43.9c0-1.3,0.2-2.5,0.5-3.6c0.3-1.1,0.8-2.2,1.4-3.1c0.6-1,1.3-1.8,2.1-2.6c0.8-0.8,1.7-1.4,2.8-2
			c1-0.5,2.1-0.9,3.3-1.2c1.2-0.3,2.4-0.4,3.6-0.4c1.7,0,3.3,0.3,4.8,0.8c1.5,0.5,2.8,1.2,4,2.1l-1.6,2.6c-0.9-0.8-1.9-1.4-3.2-1.9
			c-1.3-0.5-2.7-0.7-4.2-0.7c-1.4,0-2.7,0.2-3.9,0.7c-1.2,0.5-2.3,1.1-3.2,2c-0.9,0.8-1.6,1.9-2.1,3c-0.5,1.2-0.8,2.4-0.8,3.8
			c0,1.4,0.3,2.7,0.8,4c0.5,1.2,1.3,2.3,2.2,3.2c0.9,0.9,2,1.6,3.2,2.1c1.2,0.5,2.6,0.8,4,0.8c0.7,0,1.4-0.1,2.1-0.2
			c0.7-0.1,1.4-0.3,2.1-0.5c0.7-0.2,1.3-0.5,1.9-0.8c0.6-0.3,1.1-0.6,1.6-1l1.3,2.4c-0.6,0.5-1.2,0.9-1.9,1.3
			c-0.7,0.4-1.4,0.7-2.2,1c-0.8,0.3-1.6,0.5-2.5,0.6c-0.9,0.1-1.8,0.2-2.7,0.2c-1.8,0-3.5-0.3-5.2-0.9c-1.6-0.6-3-1.5-4.2-2.6
			c-1.2-1.1-2.2-2.4-2.9-3.9C48.2,47.4,47.8,45.7,47.8,43.9z"/>
	</g>
	<g>
		<path class="st2" d="M68.4,43.9c0-1.3,0.2-2.5,0.5-3.6c0.3-1.1,0.8-2.2,1.4-3.1c0.6-1,1.3-1.8,2.1-2.6c0.8-0.8,1.7-1.4,2.8-2
			c1-0.5,2.1-0.9,3.3-1.2c1.2-0.3,2.4-0.4,3.6-0.4c1.2,0,2.4,0.1,3.5,0.4c1.1,0.3,2.2,0.7,3.2,1.2s1.9,1.1,2.7,1.9
			c0.8,0.7,1.5,1.6,2.1,2.5c0.6,0.9,1,1.9,1.4,3c0.3,1.1,0.5,2.2,0.5,3.4c0,1.3-0.2,2.5-0.5,3.6c-0.3,1.1-0.8,2.2-1.4,3.1
			c-0.6,1-1.3,1.8-2.1,2.6c-0.8,0.8-1.7,1.4-2.8,2c-1,0.5-2.1,0.9-3.3,1.2c-1.2,0.3-2.4,0.4-3.6,0.4c-1.8,0-3.5-0.3-5.2-0.9
			c-1.6-0.6-3-1.5-4.2-2.6c-1.2-1.1-2.2-2.4-2.9-3.9C68.8,47.4,68.4,45.7,68.4,43.9z M71.8,43.4c0,1.4,0.3,2.7,0.8,4
			c0.5,1.2,1.3,2.3,2.2,3.2c0.9,0.9,2,1.6,3.2,2.1c1.2,0.5,2.6,0.8,4,0.8c1.4,0,2.7-0.2,3.9-0.7c1.2-0.5,2.2-1.1,3.1-2
			c0.9-0.8,1.6-1.9,2.1-3c0.5-1.2,0.8-2.4,0.8-3.8c0-0.9-0.1-1.8-0.4-2.7c-0.2-0.9-0.6-1.7-1-2.4c-0.4-0.7-1-1.4-1.6-2
			c-0.6-0.6-1.3-1.1-2.1-1.6c-0.8-0.4-1.6-0.8-2.4-1c-0.9-0.2-1.8-0.3-2.7-0.3c-1.4,0-2.7,0.2-3.9,0.7c-1.2,0.5-2.3,1.1-3.2,2
			c-0.9,0.8-1.6,1.9-2.1,3C72.1,40.8,71.8,42,71.8,43.4z"/>
	</g>
	<g>
		<path class="st2" d="M96.7,31.2h3.2v21.9h13.4V56H96.7V31.2z"/>
	</g>
	<g>
		<path class="st3" d="M47.8,76.9c0-1.3,0.2-2.5,0.5-3.6c0.3-1.1,0.8-2.2,1.4-3.1c0.6-1,1.3-1.8,2.1-2.6c0.8-0.8,1.7-1.4,2.8-2
			c1-0.5,2.1-0.9,3.3-1.2c1.2-0.3,2.4-0.4,3.6-0.4c1.7,0,3.3,0.3,4.8,0.8c1.5,0.5,2.8,1.2,4,2.1l-1.6,2.6c-0.9-0.8-1.9-1.4-3.2-1.9
			c-1.3-0.5-2.7-0.7-4.2-0.7c-1.4,0-2.7,0.2-3.9,0.7c-1.2,0.5-2.3,1.1-3.2,2c-0.9,0.8-1.6,1.9-2.1,3c-0.5,1.2-0.8,2.4-0.8,3.8
			c0,1.4,0.3,2.7,0.8,4c0.5,1.2,1.3,2.3,2.2,3.2c0.9,0.9,2,1.6,3.2,2.1c1.2,0.5,2.6,0.8,4,0.8c0.7,0,1.4-0.1,2.1-0.2
			c0.7-0.1,1.4-0.3,2.1-0.5c0.7-0.2,1.3-0.5,1.9-0.8c0.6-0.3,1.1-0.6,1.6-1l1.3,2.4c-0.6,0.5-1.2,0.9-1.9,1.3
			c-0.7,0.4-1.4,0.7-2.2,1c-0.8,0.3-1.6,0.5-2.5,0.6c-0.9,0.1-1.8,0.2-2.7,0.2c-1.8,0-3.5-0.3-5.2-0.9c-1.6-0.6-3-1.5-4.2-2.6
			c-1.2-1.1-2.2-2.4-2.9-3.9C48.2,80.4,47.8,78.7,47.8,76.9z"/>
	</g>
	<polygon class="st3" points="118.3,64.7 115.4,64.7 115.4,84.2 99.6,64.7 96.7,64.7 96.7,89.4 99.6,89.4 99.6,69.8 111.8,84.7 
		118.3,84.7 	"/>
	<g>
		<path class="st3" d="M120.4,76.9c0-1.3,0.2-2.5,0.5-3.6c0.3-1.1,0.8-2.2,1.4-3.1c0.6-1,1.3-1.8,2.1-2.6s1.7-1.4,2.8-2
			c1-0.5,2.1-0.9,3.3-1.2c1.2-0.3,2.4-0.4,3.7-0.4c1.7,0,3.3,0.3,4.8,0.8c1.5,0.5,2.8,1.2,4,2.1l-1.6,2.6c-0.9-0.8-1.9-1.4-3.2-1.9
			c-1.3-0.5-2.7-0.7-4.2-0.7c-1.4,0-2.7,0.2-3.9,0.7c-1.2,0.5-2.3,1.1-3.2,2c-0.9,0.8-1.6,1.9-2.1,3c-0.5,1.2-0.8,2.4-0.8,3.8
			c0,1.4,0.3,2.7,0.8,4c0.5,1.2,1.3,2.3,2.2,3.2c0.9,0.9,2,1.6,3.2,2.1c1.2,0.5,2.6,0.8,4,0.8c0.7,0,1.4-0.1,2.1-0.2
			c0.7-0.1,1.4-0.3,2.1-0.5c0.7-0.2,1.3-0.5,1.9-0.8c0.6-0.3,1.1-0.6,1.6-1l1.3,2.4c-0.6,0.5-1.2,0.9-1.9,1.3
			c-0.7,0.4-1.4,0.7-2.2,1c-0.8,0.3-1.6,0.5-2.5,0.6c-0.9,0.1-1.8,0.2-2.7,0.2c-1.8,0-3.5-0.3-5.2-0.9c-1.6-0.6-3-1.5-4.2-2.6
			c-1.2-1.1-2.2-2.4-2.9-3.9C120.7,80.4,120.4,78.7,120.4,76.9z"/>
	</g>
	<path class="st3" d="M82.1,86.4c-1.4,0-2.7-0.3-4-0.8c-1.2-0.5-2.3-1.2-3.2-2.1c-0.9-0.9-1.7-2-2.2-3.2c-0.5-1.2-0.8-2.5-0.8-4
		c0-1.4,0.3-2.6,0.8-3.8c0.5-1.2,1.2-2.2,2.1-3c0.9-0.8,2-1.5,3.2-2c1.2-0.5,2.5-0.7,3.9-0.7c0.4,0,0.8,0,1.2,0.1V64
		c-0.3,0-0.6-0.1-0.9-0.1c-1.3,0-2.5,0.1-3.6,0.4c-1.2,0.3-2.3,0.7-3.3,1.2c-1,0.5-1.9,1.2-2.8,2c-0.8,0.8-1.5,1.6-2.1,2.6
		c-0.6,1-1,2-1.4,3.1c-0.3,1.1-0.5,2.3-0.5,3.6c0,1.8,0.4,3.5,1.1,5c0.7,1.5,1.7,2.8,2.9,3.9c1.2,1.1,2.6,2,4.2,2.6
		c1.6,0.6,3.3,0.9,5.2,0.9c0.4,0,0.8,0,1.2-0.1v-2.9C82.7,86.4,82.4,86.4,82.1,86.4z"/>
	<g>
		<g>
			<path class="st4" d="M129.7,91.2c-10.1,0-22.3-4-33.5-10.9c-21.3-13.1-32.9-32.9-26-44.2c3-5,9.3-7.7,17.6-7.7
				c10.1,0,22.3,4,33.5,10.9c10.2,6.3,18.6,14.3,23.5,22.5c5,8.4,5.9,16.1,2.5,21.7C144.3,88.4,138,91.2,129.7,91.2z M87.8,30.2
				c-7.7,0-13.4,2.4-16.1,6.9c-6.4,10.5,5,29.2,25.4,41.8c11,6.7,22.9,10.6,32.6,10.6c7.7,0,13.4-2.4,16.1-6.9
				c3.1-5,2.2-12.1-2.5-19.9c-4.8-8-12.9-15.8-22.9-21.9C109.5,34,97.6,30.2,87.8,30.2z"/>
		</g>
		<g>
			<path class="st3" d="M129.7,90.7c-10,0-22.1-3.9-33.3-10.8C75.3,67,63.7,47.5,70.5,36.4c3-4.8,9.1-7.5,17.3-7.5
				c10,0,22.1,3.9,33.3,10.8c10.2,6.2,18.5,14.2,23.4,22.4c4.9,8.3,5.8,15.8,2.5,21.2C144,88.1,137.9,90.7,129.7,90.7z M87.8,29.7
				c-7.8,0-13.7,2.5-16.5,7.1c-6.6,10.7,4.9,29.7,25.6,42.4c11,6.8,23,10.7,32.9,10.7c7.9,0,13.7-2.5,16.5-7.1
				c3.2-5.1,2.3-12.4-2.5-20.3c-4.8-8.1-13-15.9-23.1-22.1C109.6,33.6,97.6,29.7,87.8,29.7z"/>
		</g>
	</g>
	<path class="st4" d="M89,65.1c1,0.5,2,1.2,2.8,1.9c0.8,0.8,1.6,1.6,2.2,2.6c0.6,1,1.1,2,1.4,3.1c0.3,1.1,0.5,2.3,0.5,3.6
		c0,1.3-0.2,2.6-0.5,3.7c-0.3,1.2-0.8,2.3-1.4,3.3c-0.6,1-1.4,1.9-2.2,2.7c-0.9,0.8-1.8,1.5-2.9,2l-3.2-2.8c1.1-0.5,2.1-1.1,3-1.9
		c0.8-0.8,1.5-1.8,2-2.9c0.5-1.1,0.7-2.3,0.7-3.6c0-0.9-0.1-1.8-0.3-2.6c-0.2-0.8-0.6-1.6-1-2.3c-0.4-0.7-0.9-1.4-1.5-1.9L89,65.1z"
		/>
	<path class="st3" d="M88.7,87.7c1-0.5,1.9-1.2,2.8-2c0.8-0.8,1.5-1.6,2.1-2.6c0.6-1,1-2,1.4-3.1c0.3-1.1,0.5-2.3,0.5-3.6
		c0-1.2-0.2-2.4-0.5-3.4c-0.3-1.1-0.8-2.1-1.4-3c-0.6-0.9-1.3-1.8-2.1-2.5c-0.8-0.7-1.7-1.4-2.7-1.9c-1-0.5-2-0.9-3.2-1.2
		c-0.8-0.2-1.7-0.3-2.6-0.4v2.9c0.5,0.1,1,0.1,1.5,0.3c0.9,0.2,1.7,0.6,2.4,1c0.8,0.4,1.4,1,2.1,1.6c0.6,0.6,1.2,1.3,1.6,2
		c0.4,0.7,0.8,1.6,1,2.4c0.2,0.9,0.4,1.8,0.4,2.7c0,1.4-0.3,2.6-0.8,3.8c-0.5,1.2-1.2,2.2-2.1,3c-0.9,0.8-1.9,1.5-3.1,2
		C85,86.1,84,86.3,83,86.4v2.9c0.8-0.1,1.6-0.2,2.4-0.4C86.6,88.6,87.7,88.2,88.7,87.7z"/>
	<path class="st2" d="M115.4,31.3h3.2V56h-3.2V31.3z"/>
	<path class="st4" d="M111.8,85.5l3.4,4.2l0.1,0.2h0.2h2.7h0.5v-0.5v-3.7L111.8,85.5z"/>
	<polygon class="st3" points="115.6,89.4 118.3,89.4 118.3,84.7 111.8,84.7 	"/>
	<g>
		<path class="st4" d="M104.5,64.1c-19.8,0-34.7-7.6-36.2-18.4c-1.8-13.1,16.6-26.4,40.9-29.7c3.7-0.5,7.5-0.8,11.2-0.8
			c19.8,0,34.7,7.6,36.2,18.4c0.9,6.4-3,13.1-10.8,18.7c-7.7,5.5-18.4,9.4-30.1,11C111.9,63.8,108.2,64.1,104.5,64.1z M120.4,16.9
			c-3.6,0-7.3,0.3-10.9,0.8C86,20.8,68.4,33.3,70,45.4c1.4,10,15.5,16.9,34.5,16.9c3.6,0,7.3-0.3,10.9-0.8
			c11.4-1.6,21.8-5.4,29.3-10.7c7.3-5.2,10.9-11.3,10.1-17.1C153.5,23.8,139.3,16.9,120.4,16.9z"/>
	</g>
	<g>
		<path class="st2" d="M104.5,63.6c-19.6,0-34.3-7.4-35.8-18C67,32.8,85.2,19.7,109.3,16.4c3.7-0.5,7.5-0.8,11.1-0.8
			c19.6,0,34.3,7.4,35.8,18c0.9,6.3-2.9,12.8-10.7,18.3c-7.6,5.5-18.3,9.4-29.9,11C111.9,63.4,108.1,63.6,104.5,63.6z M120.4,16.4
			c-3.6,0-7.3,0.3-11,0.8c-23.6,3.2-41.5,15.9-39.8,28.3c1.4,10.2,15.7,17.3,34.9,17.3c3.6,0,7.3-0.3,11-0.8
			c11.5-1.6,22-5.4,29.5-10.8c7.5-5.3,11.1-11.5,10.3-17.5C153.9,23.5,139.5,16.4,120.4,16.4z"/>
	</g>
</g>
</svg>
